<svg width="107" height="114" viewBox="0 0 107 114" fill="none" xmlns="http://www.w3.org/2000/svg">
<g id="Frame" clip-path="url(#clip0_337_6392)">
<g id="Group">
<g id="Group_2">
<path id="Vector" d="M30.3448 51.0133C28.1757 52.6811 26.9199 55.2977 27.034 58.0294C27.0911 59.8409 27.6619 62.055 29.2032 64.5853C33.941 72.4065 39.7635 68.2659 44.1303 66.7419C48.7255 65.1029 53.6346 62.8601 57.1452 60.9623C58.6864 60.1284 58.3154 59.4671 58.3154 59.4671C58.3154 59.4671 47.8407 40.6905 46.4422 40.1154C45.272 39.6266 34.3406 47.9366 30.3448 51.0133Z" fill="#407BFF"/>
<path id="Vector_2" d="M37.8227 67.0586C37.7942 67.3749 44.0733 87.9917 46.1568 88.9694C48.2403 89.947 54.6336 87.6179 54.8905 86.0652C55.1473 84.5125 49.7816 62.918 49.7816 62.918L37.8227 67.0586Z" fill="#407BFF"/>
<path id="Vector_3" d="M57.0596 60.5597C63.567 58.0005 70.3028 60.2434 70.3028 60.2434C66.1643 56.8216 63.5384 51.7321 59.9993 45.7512C55.0331 37.2974 53.9771 27.4922 53.8629 27.4922C53.8629 33.9619 46.4136 40.0866 46.4136 40.0866C46.4136 40.0866 41.2191 45.0898 46.6705 53.9462C52.1219 62.8313 57.0596 60.5597 57.0596 60.5597Z" fill="#407BFF"/>
<path id="Vector_4" opacity="0.8" d="M57.0596 60.5597C63.567 58.0005 70.3028 60.2434 70.3028 60.2434C66.1643 56.8216 63.5384 51.7321 59.9993 45.7512C55.0331 37.2974 53.9771 27.4922 53.8629 27.4922C53.8629 33.9619 46.4136 40.0866 46.4136 40.0866C46.4136 40.0866 41.2191 45.0898 46.6705 53.9462C52.1219 62.8313 57.0596 60.5597 57.0596 60.5597Z" fill="white"/>
<path id="Vector_5" opacity="0.3" d="M50.1241 64.3555L42.0183 67.576L50.5807 66.282L50.1241 64.3555Z" fill="black"/>
<path id="Vector_6" d="M48.0975 69.4732L50.0098 75.3966C50.0098 75.3966 51.3513 75.3103 53.0923 74.7065L54.4337 74.0451L54.0056 72.8087C54.0056 72.8087 51.6081 72.0898 50.6948 68.9844L48.0975 69.4732Z" fill="#263238"/>
<path id="Vector_7" opacity="0.3" d="M53.0923 74.7358L52.55 73.2118C52.55 73.2118 50.0954 72.9243 49.2107 69.2725L48.0975 69.4737L50.0098 75.3971C50.0098 75.4259 51.7508 75.2246 53.0923 74.7358Z" fill="black"/>
</g>
<g id="Group_3">
<path id="Vector_8" d="M94.5759 66.3587C105.303 60.7423 106.924 42.4705 98.1943 25.5474C89.465 8.62429 73.6921 -0.541608 62.9645 5.07478C52.2369 10.6912 50.6168 28.963 59.3461 45.8861C68.0753 62.8092 83.8482 71.9751 94.5759 66.3587Z" fill="#407BFF"/>
<path id="Vector_9" opacity="0.5" d="M94.5759 66.3587C105.303 60.7423 106.924 42.4705 98.1943 25.5474C89.465 8.62429 73.6921 -0.541608 62.9645 5.07478C52.2369 10.6912 50.6168 28.963 59.3461 45.8861C68.0753 62.8092 83.8482 71.9751 94.5759 66.3587Z" fill="white"/>
<path id="Vector_10" opacity="0.1" d="M100.528 30.7131C101.641 33.7611 105.352 46.873 90.7098 53.4578C74.0417 60.9339 54.1198 23.3232 54.1198 23.3232L53.7487 23.8121C53.6631 30.6268 55.4897 38.3905 59.3714 45.8954C68.105 62.8317 83.8599 71.9756 94.5914 66.3685C104.21 61.3365 106.493 46.0392 100.528 30.7131Z" fill="black"/>
<path id="Vector_11" d="M56.774 39.0513L71.1874 34.1631L75.9539 44.1696L63.7952 52.9397C63.7952 52.9397 59.4569 48.569 56.774 39.0513Z" fill="#407BFF"/>
<g id="Group_4">
<path id="Vector_12" d="M75.4759 44.5748C77.4477 43.6119 77.9424 40.5375 76.581 37.7079C75.2196 34.8783 72.5176 33.365 70.5458 34.3279C68.5741 35.2907 68.0793 38.3651 69.4408 41.1947C70.8022 44.0243 73.5042 45.5376 75.4759 44.5748Z" fill="#407BFF"/>
<path id="Vector_13" opacity="0.2" d="M75.4759 44.5748C77.4477 43.6119 77.9424 40.5375 76.581 37.7079C75.2196 34.8783 72.5176 33.365 70.5458 34.3279C68.5741 35.2907 68.0793 38.3651 69.4408 41.1947C70.8022 44.0243 73.5042 45.5376 75.4759 44.5748Z" fill="white"/>
</g>
<path id="Vector_14" d="M94.8332 66.2214C105.407 60.6855 106.902 42.479 98.173 25.5559C89.4438 8.63278 73.7956 -0.598416 63.2218 4.93742C52.648 10.4733 51.1527 28.6798 59.882 45.6029C68.6112 62.526 84.2594 71.7572 94.8332 66.2214Z" stroke="#263238" stroke-width="3" stroke-miterlimit="10"/>
</g>
<g id="Group_5">
<g id="Group_6">
<path id="Vector_15" d="M89.1116 9.17585C94.1348 13.374 98.0735 18.7223 100.585 24.7895C100.699 25.0482 101.099 24.9332 100.985 24.6744C98.4446 18.521 94.4773 13.1152 89.397 8.85955C89.2257 8.68702 88.9118 8.97457 89.1116 9.17585Z" fill="#407BFF"/>
</g>
</g>
<g id="Group_7">
<g id="Group_8">
<path id="Vector_16" d="M101.755 27.3488C101.984 27.9239 102.183 28.4702 102.412 29.0453C102.526 29.3041 102.926 29.1891 102.811 28.9303C102.583 28.3552 102.383 27.8089 102.155 27.2338C102.069 26.975 101.67 27.09 101.755 27.3488Z" fill="#407BFF"/>
</g>
</g>
</g>
<g id="Group_9">
<g id="Group_10">
<path id="Vector_17" d="M16.9874 103.691L17.3585 107.458L20.1555 107.775L20.4409 103.72L16.9874 103.691Z" fill="#B97964"/>
<g id="Group_11">
<g id="Group_12">
<path id="Vector_18" d="M16.7306 106.854C16.7306 106.711 16.8447 106.596 16.9875 106.596L17.8437 106.624C18.072 106.624 18.2718 107.027 18.4145 107.2C18.9568 107.976 19.3564 107.688 19.9843 106.97C20.3553 106.941 20.4695 107.372 20.498 107.487L21.183 110.161C21.2401 110.391 21.126 110.621 20.8976 110.679C20.8691 110.679 20.812 110.708 20.7835 110.708C19.6133 110.679 19.071 110.679 17.6439 110.65L13.2485 110.593C12.0498 110.564 11.8215 109.327 12.3067 109.212C14.5329 108.752 16.1312 108.091 16.8162 107.43C16.8733 107.372 16.7591 107.113 16.7306 106.854Z" fill="#263238"/>
<path id="Vector_19" d="M16.3311 107.688C16.645 107.746 16.959 107.947 17.1302 108.235" stroke="white" stroke-width="0.5" stroke-miterlimit="10" stroke-linecap="round" stroke-linejoin="round"/>
<path id="Vector_20" d="M15.7031 108.033C16.0171 108.091 16.331 108.292 16.5023 108.58" stroke="white" stroke-width="0.5" stroke-miterlimit="10" stroke-linecap="round" stroke-linejoin="round"/>
<path id="Vector_21" d="M14.9039 108.407C15.2179 108.465 15.5318 108.666 15.7031 108.954" stroke="white" stroke-width="0.5" stroke-miterlimit="10" stroke-linecap="round" stroke-linejoin="round"/>
</g>
</g>
</g>
<g id="Group_13">
<path id="Vector_22" d="M23.6376 102.168L26.8342 104.152L28.775 102.081L25.7496 99.4072L23.6376 102.168Z" fill="#B97964"/>
<g id="Group_14">
<g id="Group_15">
<path id="Vector_23" d="M26.0064 104.267C25.8923 104.181 25.8637 104.008 25.9494 103.893L26.4916 103.232C26.6343 103.059 27.091 103.117 27.2908 103.145C28.2327 103.174 28.2612 102.685 28.0614 101.765C28.2612 101.449 28.6608 101.621 28.7749 101.679L31.2866 102.743C31.4864 102.829 31.6005 103.059 31.5149 103.289C31.4864 103.318 31.4864 103.375 31.4578 103.404C30.7443 104.324 30.4018 104.756 29.517 105.906L26.8056 109.385C26.0635 110.334 24.9504 109.759 25.1502 109.299C26.1206 107.228 26.5773 105.561 26.4631 104.612C26.4916 104.468 26.2062 104.439 26.0064 104.267Z" fill="#263238"/>
<path id="Vector_24" d="M26.406 105.101C26.6343 104.871 26.9768 104.756 27.3193 104.785" stroke="white" stroke-width="0.5" stroke-miterlimit="10" stroke-linecap="round" stroke-linejoin="round"/>
<path id="Vector_25" d="M26.2919 105.848C26.5202 105.618 26.8627 105.503 27.2052 105.532" stroke="white" stroke-width="0.5" stroke-miterlimit="10" stroke-linecap="round" stroke-linejoin="round"/>
<path id="Vector_26" d="M26.1206 106.682C26.3489 106.452 26.6914 106.337 27.0339 106.366" stroke="white" stroke-width="0.5" stroke-miterlimit="10" stroke-linecap="round" stroke-linejoin="round"/>
</g>
</g>
</g>
<g id="Group_16">
<path id="Vector_27" d="M18.7856 67.0873C18.7856 67.0873 12.8775 81.0332 13.3056 81.7233C13.7908 82.5572 28.033 100.097 28.033 100.097L25.0647 103.692C25.0647 103.692 4.42925 87.1579 5.54237 80.9182C6.65548 74.6785 13.0488 60.5889 13.0488 60.5889C19.5276 61.9116 18.7856 67.0873 18.7856 67.0873Z" fill="#407BFF"/>
<path id="Vector_28" opacity="0.6" d="M18.7856 67.0873C18.7856 67.0873 12.8775 81.0332 13.3056 81.7233C13.7908 82.5572 28.033 100.097 28.033 100.097L25.0647 103.692C25.0647 103.692 4.42925 87.1579 5.54237 80.9182C6.65548 74.6785 13.0488 60.5889 13.0488 60.5889C19.5276 61.9116 18.7856 67.0873 18.7856 67.0873Z" fill="white"/>
<path id="Vector_29" opacity="0.2" d="M22.6957 96.5027C22.7528 98.1705 22.553 99.8382 22.1249 101.448C20.5265 100.039 18.4716 98.1417 16.3595 96.0714L15.9028 85.2598C17.9007 87.8189 20.6122 94.0873 22.6957 96.5027Z" fill="black"/>
<path id="Vector_30" opacity="0.2" d="M17.9864 64.9883C18.2147 65.0458 18.4431 65.1608 18.6714 65.3046C18.8141 65.8797 18.8427 66.4835 18.7856 67.0586C18.7856 67.0586 17.6725 70.2503 16.1312 73.5283C16.4737 68.1225 17.9864 64.9883 17.9864 64.9883Z" fill="black"/>
<path id="Vector_31" d="M12.6777 63.2913C12.6777 63.2913 13.1915 58.4031 13.8765 55.9877C13.8765 55.9877 22.4674 54.0899 23.6947 57.0228C23.7233 57.0228 23.7232 57.0516 23.7232 57.0803H23.7518C23.7518 57.0803 30.4019 67.0869 21.2116 105.79L16.4737 105.589L17.0446 85.0583L17.9579 64.9878L12.6777 63.2913Z" fill="#407BFF"/>
<path id="Vector_32" opacity="0.6" d="M12.6777 63.2913C12.6777 63.2913 13.1915 58.4031 13.8765 55.9877C13.8765 55.9877 22.4674 54.0899 23.6947 57.0228C23.7233 57.0228 23.7232 57.0516 23.7232 57.0803H23.7518C23.7518 57.0803 30.4019 67.0869 21.2116 105.79L16.4737 105.589L17.0446 85.0583L17.9579 64.9878L12.6777 63.2913Z" fill="white"/>
</g>
<g id="Group_17">
<path id="Vector_33" d="M13.9621 54.291L13.905 56.0163L23.7803 57.0514L23.8089 55.585L13.9621 54.291Z" fill="#263238"/>
<path id="Vector_34" d="M18.3889 54.9417L16.2347 54.6855L16.0407 56.3418L18.1949 56.5979L18.3889 54.9417Z" stroke="white" stroke-miterlimit="10"/>
</g>
<path id="Vector_35" d="M14.219 41.6684C14.4758 39.6269 15.8744 39.4831 15.8744 39.4831C15.8744 39.4831 17.016 39.3968 18.9283 39.4543C20.4124 39.5406 21.8966 39.7419 23.3522 40.0582C24.7222 40.317 26.0922 40.6908 27.4336 41.1796C27.2053 41.8122 26.977 42.416 26.7772 42.9911C24.4082 49.5184 24.1228 51.905 23.7803 55.5855L13.9336 54.4353C13.7052 47.4193 13.9906 43.595 14.219 41.6684Z" fill="#407BFF"/>
<path id="Vector_36" d="M17.387 39.3674C16.2454 39.3099 14.9896 39.1949 14.4473 39.4249C13.2771 39.5112 7.96839 44.0544 7.96839 44.0544L10.3944 38.8211L7.31194 37.6709C7.31194 37.6709 2.34574 45.2333 3.31614 48.08C4.05822 50.2653 10.2802 47.3036 13.1915 45.8084C13.1058 47.6774 13.1629 50.3228 13.22 54.7797L12.2211 62.5434L13.0773 60.6456C13.0773 60.6456 14.9039 48.8563 14.8183 46.2972C14.7042 43.7093 17.387 39.3674 17.387 39.3674Z" fill="#263238"/>
<path id="Vector_37" d="M10.5371 30.9715C10.7083 30.7415 11.0508 30.7702 11.0508 30.9715C11.0508 31.1728 11.1079 31.8341 11.0794 32.3517C11.0794 32.5817 11.0794 32.898 11.0794 33.1856C11.0794 33.2143 11.0794 33.2431 11.0794 33.3006V33.6169C11.0794 33.7607 11.0794 33.9044 11.0794 33.9907V34.3358C11.0794 34.537 11.0223 34.7383 10.9652 34.9396L10.0233 36.5786L8.91023 36.5498C7.99691 36.061 8.59627 34.2207 8.59627 34.2207L8.76752 33.1568C8.82461 32.8118 9.11002 32.553 9.48106 32.5242H10.3658C10.3944 32.1792 10.3944 31.2015 10.5371 30.9715Z" fill="#B97964"/>
<g id="Group_18">
<path id="Vector_38" d="M24.5509 31.2015C25.664 31.9491 27.3194 36.9524 24.9505 38.4476C22.5816 39.9428 16.5308 38.4764 16.0741 36.2048C15.7887 34.8821 16.2739 33.5306 17.3299 32.668C17.3299 32.668 17.016 27.6935 19.6989 27.2909C22.3818 26.8884 23.9516 29.0162 23.9516 29.0162C23.9516 29.0162 23.4663 30.4826 24.5509 31.2015Z" fill="#263238"/>
<path id="Vector_39" d="M22.7814 36.0615H21.2972L19.8131 36.4353C19.8131 36.4641 19.8131 36.4641 19.7845 36.4928L19.6704 38.5919C19.5847 39.1957 18.8141 39.5696 18.386 39.7708C18.1291 39.9146 17.3585 41.4961 18.6714 42.9913C19.071 43.4514 19.8702 42.9626 20.3839 42.675C22.5816 41.2085 22.7528 40.0009 22.7528 40.0009C22.2106 39.2533 22.496 37.413 22.7814 36.0615Z" fill="#B97964"/>
<path id="Vector_40" opacity="0.2" d="M19.6704 38.5051C19.6704 38.5051 21.9823 37.9875 21.9823 36.8086L19.699 37.7575L19.6704 38.5051Z" fill="black"/>
<path id="Vector_41" d="M24.551 33.3297C23.552 35.5725 23.181 36.5501 21.6112 37.3553C19.2423 38.563 16.7592 36.9815 17.0446 34.5086C17.33 32.2945 18.8998 28.9878 21.4399 28.8152C24.0087 28.614 25.5499 31.0868 24.551 33.3297Z" fill="#B97964"/>
<path id="Vector_42" d="M22.6101 36.9524C25.0075 35.8022 26.4632 29.7063 22.6386 28.7574C18.8141 27.8085 18.1862 31.9204 18.1862 31.9204C19.5847 27.4922 23.4949 30.4827 23.4949 30.4827C22.9526 31.8629 23.0667 33.9619 23.0667 33.9619C23.3807 35.2846 22.6101 36.9524 22.6101 36.9524Z" fill="#263238"/>
<path id="Vector_43" d="M24.5223 28.7865C26.9484 30.1667 25.9779 31.8057 25.9779 31.8057C25.9779 31.8057 27.5477 34.8824 26.9198 36.8377C26.2919 38.793 23.2951 38.9943 23.2951 38.9943C26.2634 38.6492 26.6629 35.3137 23.6661 33.6747C21.183 32.3233 22.0963 29.5341 22.0963 29.5341C22.0963 29.5341 23.1524 28.0389 24.5223 28.7865Z" fill="#263238"/>
<path id="Vector_44" d="M21.9822 32.2082C21.1831 30.0229 22.3533 29.2178 22.3533 29.2178" stroke="#263238" stroke-width="0.5" stroke-linecap="round" stroke-linejoin="round"/>
<path id="Vector_45" d="M16.2169 37.1826C14.2475 34.4797 17.4441 32.5244 17.4441 32.5244" stroke="#263238" stroke-width="0.5" stroke-linecap="round" stroke-linejoin="round"/>
<g id="Group_19">
<path id="Vector_46" d="M24.6365 34.9396C24.2084 35.3421 23.6661 35.5147 23.2094 35.4859C22.553 35.4571 22.553 34.3645 22.9526 33.7894C23.3236 33.2718 24.0371 33.0993 24.608 33.4156C25.1503 33.7319 25.1217 34.5083 24.6365 34.9396Z" fill="#B97964"/>
<path id="Vector_47" opacity="0.2" d="M23.3522 34.4222C23.4378 34.1922 23.609 34.0196 23.8374 33.9334C24.0372 33.8471 24.294 33.8184 24.5224 33.9046" stroke="black" stroke-width="0.5" stroke-miterlimit="10" stroke-linecap="round" stroke-linejoin="round"/>
</g>
</g>
<path id="Vector_48" opacity="0.2" d="M7.96834 44.0548C7.96834 44.0548 7.82563 45.32 6.85522 46.0101C6.85522 46.0101 9.19562 45.2337 8.53917 43.5947L7.96834 44.0548Z" fill="black"/>
<path id="Vector_49" d="M7.59741 37.7573L8.56782 36.1758L10.1091 36.4346L9.56677 38.5049L7.59741 37.7573Z" fill="#B97964"/>
<g id="Group_20">
<path id="Vector_50" d="M36.5383 43.9972C35.1968 43.2496 29.1461 41.438 27.9188 41.0642C27.6905 41.0067 27.4907 40.9492 27.2909 40.9205C26.663 40.7192 25.978 40.5467 25.2074 40.4316C25.2074 40.4316 23.1809 43.9972 22.9811 47.7065C22.8099 51.4158 24.7792 68.6109 24.7792 68.6109L27.7761 67.8633C27.7761 67.8633 26.0065 57.1667 27.2909 46.01L32.8565 46.4988C32.8565 46.4988 28.6894 50.2944 28.6323 50.3806L30.6017 52.5947C30.6017 52.5947 35.0541 48.5979 36.2814 47.764C37.5087 46.9301 37.7085 44.6298 36.5383 43.9972Z" fill="#263238"/>
<path id="Vector_51" opacity="0.2" d="M32.8279 46.4984C32.8279 46.4984 33.3702 46.0095 34.4833 46.0958C34.4833 46.0958 33.7127 45.1757 32.1429 46.4121L32.8279 46.4984Z" fill="black"/>
</g>
<g id="Group_21">
<g id="Group_22">
<g id="Group_23">
<g id="Group_24">
<g id="Group_25">
<g id="Group_26">
<path id="Vector_52" d="M28.347 52.3645C28.347 52.3645 27.5478 52.2782 27.0626 52.7095C26.5489 53.1408 26.4633 54.0035 26.292 54.4635C26.0066 55.1536 26.7487 54.8373 26.8914 54.4635C27.0912 53.9172 27.0912 53.9747 27.0912 53.9747C27.1197 54.2335 26.1208 56.3901 26.2064 56.7639C26.292 57.1377 26.5489 56.8501 26.5489 56.8501C26.5489 56.8501 26.3205 57.3677 26.4918 57.5115C26.5489 57.5402 26.7201 57.569 26.8628 57.339C27.1768 56.8501 27.7762 55.7575 27.7762 55.7575C27.7476 55.815 27.0912 57.2239 27.0055 57.4252C26.9199 57.7128 27.0055 57.914 27.1768 57.9428C27.4051 58.0003 28.2899 56.3038 28.3755 56.2751C28.3755 56.2751 27.8332 57.2527 28.0045 57.5115C28.1757 57.799 28.5468 57.1952 28.7751 56.6201C28.9749 56.0738 29.2032 55.0961 29.3745 54.521C29.5743 53.8309 29.8597 53.3421 29.3459 52.882C28.8893 52.4507 28.347 52.3645 28.347 52.3645Z" fill="#B97964"/>
</g>
</g>
</g>
</g>
</g>
<path id="Vector_53" d="M27.8333 52.5086C27.8904 52.4798 29.0606 50.8408 29.0606 50.8408L30.5447 52.5086L29.5172 53.2562C29.5172 53.2562 27.6335 52.4798 27.7477 52.4798" fill="#B97964"/>
</g>
</g>
</g>
<defs>
<clipPath id="clip0_337_6392">
<rect width="106" height="113" fill="white" transform="translate(0.5 0.5)"/>
</clipPath>
</defs>
</svg>
