<svg width="107" height="110" viewBox="0 0 107 110" fill="none" xmlns="http://www.w3.org/2000/svg">
<g clip-path="url(#clip0_869_27444)">
<path d="M40.8342 34.2688C40.8342 34.2688 39.9772 32.0084 38.9754 32.2088C37.9737 32.4204 36.8717 33.1887 36.8717 33.1887L35.2578 35.3711C35.2578 35.3711 39.7879 37.1527 41.3796 36.1283C41.3796 36.1283 46.0099 36.93 51.8423 35.9724C50.9964 34.1908 50.4955 32.3981 50.195 31.0063C47.2343 32.6876 44.0509 33.9459 40.8342 34.2688Z" fill="url(#paint0_linear_869_27444)"/>
<path d="M65.3328 17.845C65.3328 17.845 58.7102 26.1849 50.1953 31.0174C50.4958 32.4092 50.9967 34.1908 51.8426 35.9835C56.2614 35.2597 61.3704 33.5227 65.7113 29.6812L65.3328 17.845Z" fill="#BDD0FB"/>
<path d="M73.5905 54.8346C72.2994 48.6771 70.9971 45.114 66.6673 33.4559C65.2983 29.7814 64.0628 26.0736 64.6638 22.1987L65.3316 17.8562C65.3316 17.8562 73.7574 15.0057 83.096 17.7337C83.096 17.7337 95.8404 23.2676 87.1809 50.6256C83.2852 54.9904 78.7217 56.2375 73.5905 54.8346Z" fill="#BDD0FB"/>
<path d="M66.7695 12.2999L68.9511 17.5555C69.0847 17.8896 69.3852 18.1234 69.7414 18.1791C70.9991 18.3906 74.0489 18.7358 76.0524 17.4219C76.2861 17.266 76.3529 16.9431 76.186 16.7093L72.1456 10.9081L66.7695 12.2999Z" fill="url(#paint1_linear_869_27444)"/>
<path d="M69.0297 4.27188C68.9406 4.36096 65.1562 11.7878 65.1562 11.7878L69.4415 13.8589L74.0718 7.34507C74.0718 7.34507 70.5657 2.82437 69.0297 4.27188Z" fill="url(#paint2_linear_869_27444)"/>
<path d="M72.1227 8.1244L69.9856 11.6875C69.9522 11.7432 69.9188 11.7877 69.8632 11.8323C69.6072 12.0661 68.739 12.7564 68.06 11.8211C67.4812 11.0194 66.947 10.2957 66.3682 9.99503C66.0343 9.81688 65.6113 9.96163 65.4443 10.2957C65.0882 10.9972 64.4092 12.4224 63.9863 13.7697C63.8749 14.1037 64.053 14.4712 64.3869 14.6048C65.2551 14.9611 66.9692 15.5958 68.4941 15.8074C68.739 15.8408 68.995 15.7405 69.1397 15.529C69.7964 14.6271 71.6441 12.1218 72.2674 11.4982C72.8573 10.9192 73.9369 11.1308 74.4156 11.2755C74.6048 11.3312 74.794 11.2978 74.9609 11.2087C75.4507 10.9081 76.3189 10.1732 75.5286 8.91497C75.3283 8.60319 75.4284 8.19121 75.7401 7.97965C76.2966 7.6122 76.8865 6.93298 76.3189 5.83065C75.7401 4.71717 74.7161 4.61696 74.0149 4.69491C73.7032 4.72831 73.3915 4.57242 73.2691 4.28292C73.2135 4.1493 73.1133 4.04909 72.9129 4.00455C72.5456 3.92661 72.3008 3.59257 72.3787 3.22512C72.5011 2.59044 72.4121 1.77761 71.3992 1.22087C69.5626 0.207613 67.9376 1.86669 67.5258 3.25853C67.1139 4.6615 69.1842 5.65249 70.4865 5.81951C71.4437 5.94199 71.9668 6.98866 72.1783 7.53426C72.2451 7.72355 72.234 7.94624 72.1227 8.1244Z" fill="url(#paint3_linear_869_27444)"/>
<path d="M71.375 12.5672C71.375 12.5672 72.2988 10.407 73.3451 10.485C74.4025 10.574 75.2262 11.6207 73.9239 12.801C72.2988 14.2708 71.375 12.5672 71.375 12.5672Z" fill="url(#paint4_linear_869_27444)"/>
<path d="M72.7575 109.072C74.7944 109.25 78.3228 109.528 81.1054 109.651C82.775 109.729 83.7434 109.562 84.2999 109.339C84.2999 109.406 84.2999 109.461 84.2999 109.517C84.2888 109.807 84.0439 110.041 83.7545 110.063C78.4898 110.352 74.3047 110.163 72.8132 110.074C72.5015 110.052 72.3234 109.718 72.4793 109.461C72.5683 109.328 72.6574 109.194 72.7575 109.072Z" fill="url(#paint5_linear_869_27444)"/>
<path d="M81.1174 109.662C78.3348 109.539 74.7953 109.25 72.7695 109.083C74.773 106.622 81.1174 104.974 81.1174 104.974H82.9094C84.1449 106.756 84.323 108.448 84.3119 109.361C83.7554 109.562 82.787 109.729 81.1174 109.662Z" fill="url(#paint6_linear_869_27444)"/>
<path d="M83.2103 102.035L83.0433 105.353C83.021 105.709 82.7539 106.01 82.3977 106.065C82.0415 106.121 81.5629 106.121 81.0509 105.954C80.7393 105.854 80.5055 105.587 80.4499 105.264L79.8711 102.023H83.2103V102.035Z" fill="url(#paint7_linear_869_27444)"/>
<path d="M106.514 109.628C107.393 109.506 107.794 109.049 107.961 108.56V108.571C108.095 109.083 107.794 109.628 107.193 109.885C106.469 110.196 105.668 110.241 105.056 110.219C104.388 110.196 103.787 109.918 103.453 109.473V109.461C104.11 109.795 105.034 109.84 106.514 109.628Z" fill="url(#paint8_linear_869_27444)"/>
<path d="M102.351 102.012H103.832C106.08 101.968 107.505 106.722 107.961 108.56C107.794 109.049 107.393 109.506 106.514 109.628C105.045 109.829 104.11 109.796 103.442 109.461C102.229 107.858 101.617 105.509 101.327 104.139C101.005 102.591 102.351 102.012 102.351 102.012Z" fill="url(#paint9_linear_869_27444)"/>
<path d="M103.643 98.928L104.466 102.202C104.567 102.602 104.377 103.014 104.01 103.204C103.554 103.438 102.908 103.683 102.307 103.616C102.029 103.582 101.795 103.382 101.706 103.126L100.504 99.6852L103.643 98.928Z" fill="url(#paint10_linear_869_27444)"/>
<path d="M104.624 99.8745C103.6 100.776 100.272 100.899 100.272 100.899C88.2957 72.1379 83.3093 64.2323 83.3093 64.2323C85.0345 75.0886 83.6766 102.948 83.6766 102.948C81.6953 103.816 79.1576 102.948 79.1576 102.948C79.0018 85.1767 76.4974 66.0918 73.2695 53.877C81.3614 53.6988 85.758 51.9284 87.1716 50.8149C93.9167 61.6824 104.624 99.8745 104.624 99.8745Z" fill="url(#paint11_linear_869_27444)"/>
<path d="M71.2305 61.894L72.722 71.1581C72.978 72.7727 74.4806 73.8973 76.1056 73.6968L98.4001 70.98C99.4909 70.8464 100.315 69.9333 100.337 68.8421C100.381 66.4481 100.292 62.1835 99.2905 58.3087L71.2305 61.894Z" fill="url(#paint12_linear_869_27444)"/>
<path d="M75.9494 73.0956C75.8381 73.0845 75.7379 73.0733 75.6377 73.051C75.6154 73.051 75.6043 73.0288 75.6043 73.0065C75.6043 72.9842 75.6266 72.9731 75.6488 72.9731C75.749 72.9954 75.8492 73.0065 75.9494 73.0176C75.9716 73.0176 75.9828 73.0399 75.9828 73.0622C75.9939 73.0845 75.9716 73.0956 75.9494 73.0956ZM76.684 73.0733C76.6617 73.0733 76.6506 73.0622 76.6506 73.0399C76.6506 73.0176 76.6617 72.9954 76.684 72.9954L76.9956 72.962C77.0179 72.962 77.0402 72.9731 77.0402 72.9954C77.0402 73.0176 77.029 73.0399 77.0068 73.0399L76.684 73.0733ZM77.708 72.9397C77.6857 72.9397 77.6746 72.9286 77.6746 72.9063C77.6746 72.884 77.6857 72.8618 77.708 72.8618L78.0196 72.8283C78.0419 72.8283 78.0642 72.8395 78.0642 72.8618C78.0642 72.884 78.053 72.9063 78.0308 72.9063L77.708 72.9397C77.7191 72.9397 77.708 72.9397 77.708 72.9397ZM74.9587 72.8283C74.9476 72.8283 74.9476 72.8283 74.9476 72.8283C74.8474 72.7838 74.7584 72.7281 74.6694 72.6836C74.6471 72.6725 74.6471 72.6502 74.6582 72.6279C74.6693 72.6057 74.6916 72.6057 74.7139 72.6168C74.8029 72.6725 74.892 72.717 74.981 72.7615C75.0033 72.7727 75.0033 72.7949 75.0033 72.8172C74.981 72.8172 74.9699 72.8283 74.9587 72.8283ZM78.7431 72.8172C78.7209 72.8172 78.7097 72.8061 78.7097 72.7838C78.7097 72.7615 78.7209 72.7393 78.7431 72.7393L79.0548 72.7059C79.077 72.7059 79.0993 72.717 79.0993 72.7393C79.0993 72.7615 79.0882 72.7838 79.0659 72.7838L78.7431 72.8172ZM79.7783 72.6947C79.756 72.6947 79.7449 72.6836 79.7449 72.6613C79.7449 72.6391 79.756 72.6168 79.7783 72.6168L80.0899 72.5834C80.1122 72.5834 80.1344 72.5945 80.1344 72.6168C80.1344 72.6391 80.1233 72.6613 80.101 72.6613L79.7783 72.6947ZM80.8023 72.5611C80.78 72.5611 80.7689 72.55 80.7689 72.5277C80.7689 72.5054 80.78 72.4832 80.8023 72.4832L81.1139 72.4498C81.1362 72.4498 81.1584 72.4609 81.1584 72.4832C81.1584 72.5054 81.1473 72.5277 81.1251 72.5277L80.8023 72.5611C80.8134 72.5611 80.8023 72.5611 80.8023 72.5611ZM81.8374 72.4386C81.8151 72.4386 81.804 72.4275 81.804 72.4052C81.804 72.383 81.8151 72.3607 81.8374 72.3607L82.1491 72.3273C82.1713 72.3273 82.1936 72.3384 82.1936 72.3607C82.1936 72.383 82.1825 72.4052 82.1602 72.4052L81.8374 72.4386ZM82.8725 72.3162C82.8503 72.3162 82.8392 72.305 82.8392 72.2828C82.8392 72.2605 82.8503 72.2382 82.8725 72.2382L83.1842 72.2048C83.2065 72.2048 83.2287 72.2159 83.2287 72.2382C83.2287 72.2605 83.2176 72.2828 83.1953 72.2828L82.8725 72.3162ZM74.1128 72.2271C74.1017 72.2271 74.0906 72.2271 74.0794 72.2159C74.0015 72.138 73.9347 72.0601 73.868 71.9821C73.8568 71.9598 73.8568 71.9376 73.8791 71.9264C73.9013 71.9153 73.9236 71.9153 73.9347 71.9376C74.0015 72.0155 74.0683 72.0935 74.1351 72.1714C74.1462 72.1825 74.1462 72.2159 74.1351 72.2271C74.1351 72.2271 74.124 72.2271 74.1128 72.2271ZM83.8966 72.1825C83.8743 72.1825 83.8632 72.1714 83.8632 72.1491C83.8632 72.1269 83.8743 72.1046 83.8966 72.1046L84.2082 72.0712C84.2305 72.0712 84.2527 72.0823 84.2527 72.1046C84.2527 72.1269 84.2416 72.1491 84.2193 72.1491L83.8966 72.1825C83.9077 72.1825 83.8966 72.1825 83.8966 72.1825ZM84.9317 72.0601C84.9094 72.0601 84.8983 72.0489 84.8983 72.0266C84.8983 72.0044 84.9094 71.9821 84.9317 71.9821L85.2434 71.9487C85.2656 71.9487 85.2879 71.9598 85.2879 71.9821C85.2879 72.0044 85.2767 72.0266 85.2545 72.0266L84.9317 72.0601ZM85.9668 71.9376C85.9446 71.9376 85.9334 71.9264 85.9334 71.9042C85.9334 71.8819 85.9446 71.8596 85.9668 71.8596L86.2785 71.8262C86.3007 71.8262 86.323 71.8374 86.323 71.8596C86.323 71.8819 86.3119 71.9042 86.2896 71.9042L85.9668 71.9376ZM86.9908 71.804C86.9686 71.804 86.9574 71.7928 86.9574 71.7706C86.9574 71.7483 86.9686 71.726 86.9908 71.726L87.3025 71.6926C87.3248 71.6926 87.347 71.7037 87.347 71.726C87.347 71.7483 87.3359 71.7706 87.3136 71.7706L86.9908 71.804C87.002 71.804 86.9908 71.804 86.9908 71.804ZM88.026 71.6815C88.0037 71.6815 87.9926 71.6703 87.9926 71.6481C87.9926 71.6258 88.0037 71.6035 88.026 71.6035L88.3376 71.5701C88.3599 71.5701 88.3822 71.5813 88.3822 71.6035C88.3822 71.6258 88.371 71.6481 88.3488 71.6481L88.026 71.6815ZM89.0611 71.559C89.0389 71.559 89.0277 71.5479 89.0277 71.5256C89.0277 71.5033 89.0389 71.4811 89.0611 71.4811L89.3728 71.4476C89.395 71.4476 89.4173 71.4588 89.4173 71.4811C89.4173 71.5033 89.4062 71.5256 89.3839 71.5256L89.0611 71.559ZM90.0851 71.4365C90.0629 71.4365 90.0517 71.4254 90.0517 71.4031C90.0517 71.3808 90.0629 71.3586 90.0851 71.3586L90.3968 71.3252C90.419 71.3252 90.4413 71.3363 90.4413 71.3586C90.4413 71.3808 90.4302 71.4031 90.4079 71.4031L90.0851 71.4365C90.0963 71.4365 90.0963 71.4365 90.0851 71.4365ZM73.534 71.3697C73.5229 71.3697 73.5006 71.3586 73.5006 71.3474C73.4561 71.2472 73.4227 71.147 73.3893 71.0468C73.3782 71.0245 73.3893 71.0023 73.4116 71.0023C73.4339 70.9911 73.4561 71.0023 73.4561 71.0245C73.4895 71.1247 73.5229 71.2138 73.5674 71.314C73.5786 71.3363 73.5674 71.3586 73.5452 71.3697C73.5452 71.3697 73.5452 71.3697 73.534 71.3697ZM91.1203 71.3029C91.098 71.3029 91.0869 71.2918 91.0869 71.2695C91.0869 71.2472 91.098 71.225 91.1203 71.225L91.4319 71.1915C91.4542 71.1915 91.4764 71.2027 91.4764 71.225C91.4764 71.2472 91.4653 71.2695 91.443 71.2695L91.1203 71.3029ZM92.1554 71.1804C92.1331 71.1804 92.122 71.1693 92.122 71.147C92.122 71.1247 92.1331 71.1025 92.1554 71.1025L92.4671 71.0691C92.4893 71.0691 92.5116 71.0802 92.5116 71.1025C92.5116 71.1247 92.5005 71.147 92.4782 71.147L92.1554 71.1804ZM93.1794 71.0579C93.1572 71.0579 93.146 71.0468 93.146 71.0245C93.146 71.0023 93.1572 70.98 93.1794 70.98L93.4911 70.9466C93.5133 70.9466 93.5356 70.9577 93.5356 70.98C93.5356 71.0023 93.5245 71.0245 93.5022 71.0245L93.1794 71.0579C93.1905 71.0579 93.1905 71.0579 93.1794 71.0579ZM94.2146 70.9243C94.1923 70.9243 94.1812 70.9132 94.1812 70.8909C94.1812 70.8686 94.1923 70.8464 94.2146 70.8464L94.5262 70.813C94.5485 70.813 94.5707 70.8241 94.5707 70.8464C94.5707 70.8686 94.5596 70.8909 94.5373 70.8909L94.2146 70.9243ZM95.2497 70.8018C95.2274 70.8018 95.2163 70.7907 95.2163 70.7684C95.2163 70.7462 95.2274 70.7239 95.2497 70.7239L95.5613 70.6905C95.5836 70.6905 95.6059 70.7016 95.6059 70.7239C95.6059 70.7462 95.5947 70.7684 95.5725 70.7684L95.2497 70.8018ZM96.2737 70.6793C96.2514 70.6793 96.2403 70.6682 96.2403 70.6459C96.2403 70.6237 96.2514 70.6014 96.2737 70.6014L96.5854 70.568C96.6076 70.568 96.6299 70.5791 96.6299 70.6014C96.6299 70.6237 96.6187 70.6459 96.5965 70.6459L96.2737 70.6793C96.2848 70.6793 96.2848 70.6793 96.2737 70.6793ZM97.3088 70.5457C97.2866 70.5457 97.2754 70.5346 97.2754 70.5123C97.2754 70.4901 97.2866 70.4678 97.3088 70.4678L97.6205 70.4344C97.6428 70.4344 97.665 70.4455 97.665 70.4678C97.665 70.4901 97.6539 70.5123 97.6316 70.5123L97.3088 70.5457ZM73.278 70.3676C73.2558 70.3676 73.2446 70.3564 73.2446 70.3342L73.2001 70.0224C73.2001 70.0001 73.2112 69.9779 73.2335 69.9779C73.2558 69.9779 73.278 69.989 73.278 70.0113L73.3226 70.323C73.3226 70.3453 73.3114 70.3676 73.278 70.3676C73.2892 70.3676 73.278 70.3676 73.278 70.3676ZM98.3217 70.3453C98.3106 70.3453 98.2883 70.3342 98.2883 70.323C98.2772 70.3008 98.2883 70.2785 98.3106 70.2674C98.3996 70.2228 98.4998 70.1783 98.5777 70.1337C98.6 70.1226 98.6222 70.1337 98.6334 70.1449C98.6445 70.1672 98.6334 70.1894 98.6222 70.2006C98.5332 70.2562 98.433 70.3008 98.344 70.3453C98.3328 70.3453 98.3328 70.3453 98.3217 70.3453ZM99.1454 69.7329C99.1342 69.7329 99.1231 69.7329 99.1231 69.7218C99.1009 69.7106 99.1009 69.6884 99.112 69.6661C99.1788 69.5881 99.2344 69.4991 99.2901 69.41C99.3012 69.3877 99.3235 69.3877 99.3457 69.3989C99.368 69.41 99.368 69.4323 99.3569 69.4545C99.3012 69.5436 99.2455 69.6327 99.1788 69.7106C99.1676 69.7218 99.1565 69.7329 99.1454 69.7329ZM73.1111 69.3432C73.0888 69.3432 73.0777 69.332 73.0777 69.3098L73.0332 68.998C73.0332 68.9757 73.0443 68.9535 73.0666 68.9535C73.0888 68.9535 73.1111 68.9646 73.1111 68.9869L73.1556 69.2986C73.1556 69.3209 73.1445 69.3432 73.1111 69.3432C73.1222 69.3432 73.1111 69.3432 73.1111 69.3432ZM99.5795 68.7976C99.5683 68.7976 99.5795 68.7976 99.5795 68.7976C99.5461 68.7976 99.5349 68.7753 99.5461 68.753C99.5683 68.6528 99.5795 68.5526 99.5795 68.4524C99.5795 68.4301 99.6017 68.419 99.624 68.419C99.6462 68.419 99.6574 68.4413 99.6574 68.4635C99.6574 68.5637 99.6462 68.6751 99.624 68.7753C99.6129 68.7864 99.5906 68.7976 99.5795 68.7976ZM72.9441 68.3188C72.9219 68.3188 72.9107 68.3077 72.9107 68.2854L72.8662 67.9736C72.8662 67.9513 72.8773 67.9291 72.8996 67.9291C72.9219 67.9291 72.9441 67.9402 72.9441 67.9625L72.9886 68.2743C72.9886 68.2965 72.9775 68.3077 72.9441 68.3188C72.9552 68.3188 72.9552 68.3188 72.9441 68.3188ZM99.624 67.7621C99.6017 67.7621 99.5795 67.7398 99.5906 67.7175C99.5906 67.6396 99.5906 67.5616 99.5906 67.4837V67.4057C99.5906 67.3835 99.6129 67.3612 99.624 67.3612C99.6462 67.3612 99.6574 67.3835 99.6574 67.3946V67.4726C99.6574 67.5505 99.6574 67.6284 99.6574 67.7064C99.6574 67.7398 99.6462 67.7621 99.624 67.7621ZM72.7883 67.2944C72.766 67.2944 72.7549 67.2833 72.7549 67.261L72.7104 66.9492C72.7104 66.9269 72.7215 66.9047 72.7438 66.9047C72.766 66.9047 72.7883 66.9158 72.7883 66.9381L72.8328 67.2499C72.8217 67.261 72.8105 67.2833 72.7883 67.2944ZM99.6129 66.7154C99.5906 66.7154 99.5795 66.6931 99.5795 66.682C99.5795 66.5818 99.5795 66.4704 99.5683 66.3702C99.5683 66.3479 99.5795 66.3257 99.6017 66.3257C99.624 66.3257 99.6462 66.3368 99.6462 66.3591C99.6462 66.4593 99.6463 66.5706 99.6574 66.6708C99.6574 66.7043 99.6351 66.7154 99.6129 66.7154ZM72.6213 66.2589C72.5991 66.2589 72.5879 66.2477 72.5879 66.2255L72.5434 65.9137C72.5434 65.8914 72.5545 65.8691 72.5768 65.8691C72.5991 65.8691 72.6213 65.8803 72.6213 65.9026L72.6659 66.2143C72.6659 66.2366 72.6436 66.2589 72.6213 66.2589ZM99.5795 65.6799C99.5572 65.6799 99.5461 65.6687 99.5461 65.6465C99.5461 65.5462 99.5349 65.4349 99.5349 65.3347C99.5349 65.3124 99.5461 65.2901 99.5683 65.2901C99.5906 65.2901 99.6129 65.3013 99.6129 65.3236C99.6129 65.4238 99.624 65.5351 99.624 65.6353C99.624 65.6576 99.6129 65.6799 99.5795 65.6799C99.5906 65.6799 99.5795 65.6799 99.5795 65.6799ZM72.4544 65.2345C72.4321 65.2345 72.421 65.2233 72.421 65.2011L72.3765 64.8893C72.3765 64.867 72.3876 64.8448 72.4098 64.8448C72.4321 64.8448 72.4544 64.8559 72.4544 64.8782L72.4989 65.1899C72.4989 65.2122 72.4766 65.2345 72.4544 65.2345ZM99.5349 64.6443C99.5127 64.6443 99.5016 64.6332 99.5016 64.6109C99.4904 64.5107 99.4904 64.3994 99.4793 64.2992C99.4793 64.2769 99.4904 64.2546 99.5127 64.2546C99.5349 64.2546 99.5572 64.2657 99.5572 64.288C99.5683 64.3882 99.5683 64.4996 99.5795 64.5998C99.5683 64.6221 99.5572 64.6332 99.5349 64.6443ZM72.2874 64.2101C72.2652 64.2101 72.254 64.1989 72.254 64.1767L72.2095 63.8649C72.2095 63.8426 72.2206 63.8204 72.2429 63.8204C72.2652 63.8204 72.2874 63.8315 72.2874 63.8538L72.3319 64.1655C72.3319 64.1878 72.3208 64.2101 72.2874 64.2101C72.2985 64.2101 72.2874 64.2101 72.2874 64.2101ZM99.457 63.5977C99.4348 63.5977 99.4236 63.5865 99.4236 63.5643C99.4125 63.464 99.4014 63.3527 99.3902 63.2525C99.3902 63.2302 99.4014 63.208 99.4236 63.208C99.4459 63.208 99.4682 63.2191 99.4682 63.2414C99.4793 63.3416 99.4904 63.4529 99.5016 63.5531C99.5016 63.5865 99.4793 63.5977 99.457 63.5977ZM72.1205 63.1857C72.0982 63.1857 72.0871 63.1745 72.0871 63.1523L72.0425 62.8405C72.0425 62.8182 72.0537 62.796 72.0759 62.796C72.0982 62.796 72.1205 62.8071 72.1205 62.8294L72.165 63.1411C72.165 63.1634 72.1538 63.1745 72.1205 63.1857C72.1316 63.1857 72.1316 63.1857 72.1205 63.1857ZM99.3569 62.5733C99.3346 62.5733 99.3235 62.5621 99.3235 62.5399C99.3123 62.4397 99.3012 62.3283 99.2901 62.2281C99.2901 62.2058 99.3012 62.1836 99.3235 62.1836C99.3457 62.1836 99.368 62.1947 99.368 62.217C99.3791 62.3172 99.3902 62.4285 99.4014 62.5287C99.3902 62.551 99.3791 62.5621 99.3569 62.5733ZM71.9646 62.1613C71.9424 62.1613 71.9312 62.1502 71.9312 62.1279L71.8867 61.8161C71.8867 61.7938 71.8978 61.7716 71.9201 61.7716C71.9424 61.7716 71.9646 61.7827 71.9646 61.805L72.0092 62.1167C71.998 62.139 71.9869 62.1502 71.9646 62.1613ZM72.5768 61.7604C72.5545 61.7604 72.5434 61.7493 72.5434 61.727C72.5434 61.7048 72.5545 61.6825 72.5768 61.6825L72.8885 61.638C72.9107 61.638 72.933 61.6491 72.933 61.6714C72.933 61.6936 72.9219 61.7159 72.8996 61.7159L72.5768 61.7604C72.5879 61.7604 72.5768 61.7604 72.5768 61.7604ZM73.612 61.6268C73.5897 61.6268 73.5786 61.6157 73.5786 61.5934C73.5786 61.5711 73.5897 61.5489 73.612 61.5489L73.9236 61.5043C73.9459 61.5043 73.9681 61.5155 73.9681 61.5377C73.9681 61.56 73.957 61.5823 73.9347 61.5823L73.612 61.6268ZM99.2233 61.5377C99.201 61.5377 99.1899 61.5266 99.1899 61.5043C99.1788 61.4041 99.1565 61.3039 99.1454 61.1926C99.1454 61.1703 99.1565 61.148 99.1788 61.148C99.201 61.148 99.2233 61.1592 99.2233 61.1814C99.2344 61.2816 99.2567 61.3819 99.2678 61.4932C99.2678 61.5155 99.2456 61.5377 99.2233 61.5377ZM74.636 61.5043C74.6137 61.5043 74.6026 61.4932 74.6026 61.4709C74.6026 61.4487 74.6137 61.4264 74.636 61.4264L74.9476 61.3819C74.9699 61.3819 74.9921 61.393 74.9921 61.4153C74.9921 61.4375 74.981 61.4598 74.9587 61.4598L74.636 61.5043C74.6471 61.5043 74.6471 61.5043 74.636 61.5043ZM75.6711 61.3707C75.6488 61.3707 75.6377 61.3596 75.6377 61.3373C75.6377 61.315 75.6488 61.2928 75.6711 61.2928L75.9828 61.2482C76.005 61.2482 76.0273 61.2594 76.0273 61.2816C76.0273 61.3039 76.0161 61.3262 75.9939 61.3262L75.6711 61.3707ZM76.7062 61.2371C76.684 61.2371 76.6728 61.226 76.6728 61.2037C76.6728 61.1814 76.684 61.1592 76.7062 61.1592L77.0179 61.1146C77.0401 61.1146 77.0624 61.1258 77.0624 61.148C77.0624 61.1703 77.0513 61.1926 77.029 61.1926L76.7062 61.2371ZM77.7302 61.1035C77.708 61.1035 77.6968 61.0924 77.6968 61.0701C77.6968 61.0478 77.708 61.0255 77.7302 61.0255L78.0419 60.981C78.0642 60.981 78.0864 60.9921 78.0864 61.0144C78.0864 61.0367 78.0753 61.0589 78.053 61.0589L77.7302 61.1035C77.7414 61.1035 77.7302 61.1035 77.7302 61.1035ZM78.7654 60.9699C78.7431 60.9699 78.732 60.9587 78.732 60.9365C78.732 60.9142 78.7431 60.8919 78.7654 60.8919L79.077 60.8474C79.0993 60.8474 79.1216 60.8585 79.1216 60.8808C79.1216 60.9031 79.1104 60.9253 79.0882 60.9253L78.7654 60.9699ZM79.8005 60.8363C79.7783 60.8363 79.7671 60.8251 79.7671 60.8028C79.7671 60.7806 79.7783 60.7583 79.8005 60.7583L80.1122 60.7138C80.1344 60.7138 80.1567 60.7249 80.1567 60.7472C80.1567 60.7694 80.1456 60.7917 80.1233 60.7917L79.8005 60.8363ZM80.8245 60.7138C80.8023 60.7138 80.7911 60.7026 80.7911 60.6804C80.7911 60.6581 80.8023 60.6358 80.8245 60.6358L81.1362 60.5913C81.1584 60.5913 81.1807 60.6024 81.1807 60.6247C81.1807 60.647 81.1696 60.6692 81.1473 60.6692L80.8245 60.7138ZM81.8597 60.5802C81.8374 60.5802 81.8263 60.569 81.8263 60.5468C81.8263 60.5245 81.8374 60.5022 81.8597 60.5022L82.1713 60.4577C82.1936 60.4577 82.2158 60.4688 82.2158 60.4911C82.2158 60.5133 82.2047 60.5356 82.1825 60.5356L81.8597 60.5802ZM99.0563 60.5133C99.0341 60.5133 99.0229 60.5022 99.0229 60.4799C99.0007 60.3797 98.9895 60.2795 98.9673 60.1682C98.9673 60.1459 98.9784 60.1236 99.0007 60.1236C99.0229 60.1236 99.0452 60.1348 99.0452 60.157C99.0675 60.2572 99.0786 60.3575 99.1009 60.4688C99.1009 60.4911 99.0897 60.5022 99.0563 60.5133C99.0675 60.5133 99.0563 60.5133 99.0563 60.5133ZM82.8837 60.4465C82.8614 60.4465 82.8503 60.4354 82.8503 60.4131C82.8503 60.3909 82.8614 60.3686 82.8837 60.3686L83.1953 60.3241C83.2176 60.3241 83.2399 60.3352 83.2399 60.3575C83.2399 60.3797 83.2287 60.402 83.2065 60.402L82.8837 60.4465C82.8948 60.4465 82.8837 60.4465 82.8837 60.4465ZM83.9188 60.3129C83.8966 60.3129 83.8854 60.3018 83.8854 60.2795C83.8854 60.2572 83.8966 60.235 83.9188 60.235L84.2305 60.1904C84.2527 60.1904 84.275 60.2016 84.275 60.2238C84.275 60.2461 84.2639 60.2684 84.2416 60.2684L83.9188 60.3129ZM84.954 60.1793C84.9317 60.1793 84.9206 60.1682 84.9206 60.1459C84.9206 60.1236 84.9317 60.1014 84.954 60.1014L85.2656 60.0568C85.2879 60.0568 85.3101 60.068 85.3101 60.0902C85.3101 60.1125 85.299 60.1348 85.2767 60.1348L84.954 60.1793ZM85.978 60.0457C85.9557 60.0457 85.9446 60.0346 85.9446 60.0123C85.9446 59.99 85.9557 59.9677 85.978 59.9677L86.2896 59.9232C86.3119 59.9232 86.3341 59.9343 86.3341 59.9566C86.3341 59.9789 86.323 60.0011 86.3008 60.0011L85.978 60.0457ZM87.0131 59.9121C86.9908 59.9121 86.9797 59.9009 86.9797 59.8787C86.9797 59.8564 86.9908 59.8341 87.0131 59.8341L87.3248 59.7896C87.347 59.7896 87.3693 59.8007 87.3693 59.823C87.3693 59.8453 87.3581 59.8675 87.3359 59.8675L87.0131 59.9121ZM88.0371 59.7896C88.0148 59.7896 88.0037 59.7785 88.0037 59.7562C88.0037 59.7339 88.0148 59.7116 88.0371 59.7116L88.3488 59.6671C88.371 59.6671 88.3933 59.6782 88.3933 59.7005C88.3933 59.7228 88.3822 59.7451 88.3599 59.7451L88.0371 59.7896C88.0482 59.7896 88.0482 59.7896 88.0371 59.7896ZM89.0722 59.656C89.05 59.656 89.0389 59.6448 89.0389 59.6226C89.0389 59.6003 89.05 59.578 89.0722 59.578L89.3839 59.5335C89.4062 59.5335 89.4284 59.5446 89.4284 59.5669C89.4284 59.5892 89.4173 59.6114 89.395 59.6114L89.0722 59.656ZM90.1074 59.5224C90.0851 59.5224 90.074 59.5112 90.074 59.489C90.074 59.4667 90.0851 59.4444 90.1074 59.4444L90.419 59.3999C90.4413 59.3999 90.4636 59.411 90.4636 59.4333C90.4636 59.4555 90.4524 59.4778 90.4302 59.4778L90.1074 59.5224ZM98.856 59.489C98.8337 59.489 98.8226 59.4778 98.8226 59.4556C98.8003 59.3553 98.7781 59.2551 98.7558 59.1549C98.7558 59.1326 98.7669 59.1104 98.7892 59.1104C98.8115 59.1104 98.8337 59.1215 98.8337 59.1438C98.856 59.244 98.8782 59.3442 98.9005 59.4444C98.9005 59.4667 98.8894 59.489 98.856 59.489C98.8671 59.489 98.8671 59.489 98.856 59.489ZM91.1314 59.3887C91.1091 59.3887 91.098 59.3776 91.098 59.3553C91.098 59.3331 91.1091 59.3108 91.1314 59.3108L91.443 59.2663C91.4653 59.2663 91.4876 59.2774 91.4876 59.2997C91.4876 59.3219 91.4764 59.3442 91.4542 59.3442L91.1314 59.3887C91.1425 59.3887 91.1314 59.3887 91.1314 59.3887ZM92.1665 59.2551C92.1443 59.2551 92.1331 59.244 92.1331 59.2217C92.1331 59.1994 92.1443 59.1772 92.1665 59.1772L92.4782 59.1326C92.5005 59.1326 92.5227 59.1438 92.5227 59.166C92.5227 59.1883 92.5116 59.2106 92.4893 59.2106L92.1665 59.2551ZM93.1905 59.1215C93.1683 59.1215 93.1572 59.1104 93.1572 59.0881C93.1572 59.0658 93.1683 59.0436 93.1905 59.0436L93.5022 58.999C93.5245 58.999 93.5467 59.0102 93.5467 59.0324C93.5467 59.0547 93.5356 59.077 93.5133 59.077L93.1905 59.1215C93.2017 59.1215 93.2017 59.1215 93.1905 59.1215ZM94.2257 58.9879C94.2034 58.9879 94.1923 58.9768 94.1923 58.9545C94.1923 58.9322 94.2034 58.9099 94.2257 58.9099L94.5373 58.8654C94.5596 58.8654 94.5819 58.8765 94.5819 58.8988C94.5819 58.9211 94.5707 58.9433 94.5485 58.9433L94.2257 58.9879ZM95.2608 58.8654C95.2386 58.8654 95.2274 58.8543 95.2274 58.832C95.2274 58.8097 95.2386 58.7875 95.2608 58.7875L95.5725 58.7429C95.5947 58.7429 95.617 58.7541 95.617 58.7763C95.617 58.7986 95.6059 58.8209 95.5836 58.8209L95.2608 58.8654ZM96.2848 58.7318C96.2626 58.7318 96.2514 58.7207 96.2514 58.6984C96.2514 58.6761 96.2626 58.6538 96.2848 58.6538L96.5965 58.6093C96.6187 58.6093 96.641 58.6204 96.641 58.6427C96.641 58.665 96.6299 58.6873 96.6076 58.6873L96.2848 58.7318C96.296 58.7318 96.2848 58.7318 96.2848 58.7318ZM97.32 58.5982C97.2977 58.5982 97.2866 58.587 97.2866 58.5648C97.2866 58.5425 97.2977 58.5202 97.32 58.5202L97.6316 58.4757C97.6539 58.4757 97.6761 58.4868 97.6761 58.5091C97.6761 58.5314 97.665 58.5536 97.6428 58.5536L97.32 58.5982ZM98.6222 58.4757C98.6 58.4757 98.5888 58.4646 98.5888 58.4423V58.4312L98.3662 58.4646C98.344 58.4646 98.3217 58.4534 98.3217 58.4312C98.3217 58.4089 98.3328 58.3866 98.3551 58.3866L98.6556 58.3532L98.6779 58.4312C98.6668 58.4534 98.6556 58.4757 98.6222 58.4757C98.6334 58.4757 98.6222 58.4757 98.6222 58.4757Z" fill="white"/>
<path d="M76.8934 54.3113L76.8711 53.5875C76.9267 53.4093 77.0714 53.2646 77.2495 53.2089C77.9285 53.0085 79.6203 52.5965 80.533 53.1087L80.7668 53.9215L76.8934 54.3113Z" fill="url(#paint13_linear_869_27444)"/>
<path d="M78.9662 53.3425C78.8103 53.3982 78.6545 53.4205 78.4876 53.3982C78.2872 53.3759 78.1314 53.2201 78.098 53.0196L77.8086 50.7704L78.955 50.6257L79.2444 52.8749C79.2778 53.0753 79.1554 53.2646 78.9662 53.3425Z" fill="url(#paint14_linear_869_27444)"/>
<path d="M87.9598 52.886L87.9375 52.1623C87.9932 51.9841 88.1379 51.8394 88.3159 51.7837C88.9949 51.5833 90.6867 51.1713 91.5994 51.6835L91.8332 52.4963L87.9598 52.886Z" fill="url(#paint15_linear_869_27444)"/>
<path d="M90.0386 51.9173C89.8828 51.973 89.727 51.9953 89.56 51.973C89.3597 51.9507 89.2038 51.7948 89.1704 51.5944L88.8477 49.1114L89.9941 48.9666L90.3169 51.4497C90.3391 51.6612 90.2278 51.8505 90.0386 51.9173Z" fill="url(#paint16_linear_869_27444)"/>
<path d="M77.7738 51.3384L90.0174 49.3564C90.2956 49.3118 90.5071 49.078 90.5182 48.7996C90.5405 48.4099 90.5182 47.8198 90.3624 47.2408C90.1732 46.5727 89.5276 46.1496 88.8375 46.2164C86.5335 46.4502 80.7011 47.2074 77.6402 48.8887C77.3174 49.0669 77.106 49.3898 77.0614 49.7572C77.0169 50.1024 77.028 50.5589 77.195 51.0043C77.2729 51.2381 77.5178 51.3829 77.7738 51.3384Z" fill="url(#paint17_linear_869_27444)"/>
<path opacity="0.69" d="M77.4746 50.7816C77.4301 50.7816 77.3856 50.7482 77.3745 50.7036C77.3745 50.6814 77.2631 50.2137 77.3299 49.746C77.3856 49.3786 77.6193 49.0557 77.9644 48.9109C78.6211 48.6214 79.89 48.1092 80.9696 47.9422C81.0253 47.9311 81.0809 47.9756 81.092 48.0313C81.1032 48.087 81.0587 48.1426 81.003 48.1538C79.9567 48.3208 78.7101 48.8219 78.0534 49.1114C77.7752 49.2338 77.5748 49.4899 77.5414 49.7906C77.4858 50.2248 77.5859 50.6702 77.5859 50.6702C77.5971 50.7259 77.5637 50.7816 77.508 50.7927C77.4858 50.7816 77.4746 50.7816 77.4746 50.7816Z" fill="white"/>
<path d="M71.1519 54.7567C75.1143 54.1999 92.2776 51.8171 97.342 51.7837C97.7761 51.7837 98.1657 52.0509 98.3215 52.4629C98.789 53.7545 99.7796 56.7832 100.102 59.8564C100.147 60.2795 99.8798 60.6692 99.4791 60.8028L88.3597 64.4216L84.3081 64.9449L71.8642 64.0876C71.4301 64.0542 71.0628 63.7312 70.9849 63.3081C70.7066 61.7715 70.1167 58.1639 70.2392 55.7811C70.2614 55.2466 70.651 54.8346 71.1519 54.7567Z" fill="url(#paint18_linear_869_27444)"/>
<path d="M84.2842 63.9762L83.9614 63.954C83.9392 63.954 83.928 63.9317 83.928 63.9094C83.928 63.8872 83.9503 63.876 83.9726 63.876L84.2842 63.8983L84.4512 63.876C84.4734 63.876 84.4957 63.8872 84.4957 63.9094C84.4957 63.9317 84.4846 63.954 84.4623 63.954L84.2842 63.9762ZM83.238 63.8983L82.9263 63.876C82.904 63.876 82.8929 63.8538 82.8929 63.8315C82.8929 63.8092 82.9152 63.7981 82.9374 63.7981L83.2491 63.8204C83.2713 63.8204 83.2825 63.8426 83.2825 63.8649C83.2825 63.8872 83.2602 63.8983 83.238 63.8983ZM85.1858 63.8649C85.1635 63.8649 85.1524 63.8538 85.1524 63.8315C85.1524 63.8092 85.1635 63.7869 85.1858 63.7869L85.4975 63.7424C85.5197 63.7424 85.542 63.7535 85.542 63.7758C85.542 63.7981 85.5308 63.8204 85.5086 63.8204L85.1858 63.8649ZM82.2028 63.8315L81.8912 63.8092C81.8689 63.8092 81.8578 63.7869 81.8578 63.7647C81.8578 63.7424 81.88 63.7313 81.9023 63.7313L82.2139 63.7535C82.2362 63.7535 82.2473 63.7758 82.2473 63.7981C82.2473 63.8203 82.2251 63.8315 82.2028 63.8315ZM81.1677 63.7647L80.856 63.7424C80.8338 63.7424 80.8226 63.7201 80.8226 63.6979C80.8226 63.6756 80.8449 63.6645 80.8672 63.6645L81.1788 63.6867C81.2011 63.6867 81.2122 63.709 81.2122 63.7313C81.2122 63.7424 81.1899 63.7647 81.1677 63.7647ZM86.2098 63.7313C86.1875 63.7313 86.1764 63.7201 86.1764 63.6979C86.1764 63.6756 86.1875 63.6533 86.2098 63.6533L86.5215 63.6088C86.5437 63.6088 86.566 63.6199 86.566 63.6422C86.566 63.6645 86.5549 63.6867 86.5326 63.6867L86.2098 63.7313ZM80.1325 63.6867L79.8209 63.6645C79.7986 63.6645 79.7875 63.6422 79.7875 63.6199C79.7875 63.5977 79.8098 63.5865 79.832 63.5865L80.1437 63.6088C80.1659 63.6088 80.1771 63.6311 80.1771 63.6533C80.1659 63.6756 80.1548 63.6867 80.1325 63.6867ZM79.0974 63.6199L78.7857 63.5977C78.7635 63.5977 78.7524 63.5754 78.7524 63.5531C78.7524 63.5308 78.7746 63.5197 78.7969 63.5197L79.1085 63.542C79.1308 63.542 79.1419 63.5642 79.1419 63.5865C79.1308 63.5977 79.1197 63.6199 79.0974 63.6199ZM87.2449 63.5977C87.2227 63.5977 87.2116 63.5865 87.2116 63.5642C87.2116 63.542 87.2227 63.5197 87.2449 63.5197L87.5566 63.4752C87.5789 63.4752 87.6011 63.4863 87.6011 63.5086C87.6011 63.5308 87.59 63.5531 87.5677 63.5531L87.2449 63.5977ZM78.0623 63.542L77.7506 63.5197C77.7283 63.5197 77.7172 63.4974 77.7172 63.4752C77.7172 63.4529 77.7395 63.4418 77.7617 63.4418L78.0734 63.464C78.0957 63.464 78.1068 63.4863 78.1068 63.5086C78.0957 63.5308 78.0845 63.542 78.0623 63.542ZM77.0271 63.4752C77.016 63.4752 77.0271 63.4752 77.0271 63.4752L76.7155 63.4529C76.6932 63.4529 76.6821 63.4306 76.6821 63.4084C76.6821 63.3861 76.7043 63.375 76.7266 63.375L77.0383 63.3972C77.0605 63.3972 77.0716 63.4195 77.0716 63.4418C77.0605 63.4529 77.0383 63.4752 77.0271 63.4752ZM88.269 63.4418C88.2578 63.4418 88.2356 63.4306 88.2356 63.4195C88.2244 63.3972 88.2356 63.375 88.2578 63.375L88.5583 63.2747C88.5806 63.2636 88.6029 63.2747 88.6029 63.297C88.614 63.3193 88.6029 63.3416 88.5806 63.3416L88.2801 63.4418H88.269ZM75.992 63.3972C75.9809 63.3972 75.9809 63.3972 75.992 63.3972L75.6803 63.375C75.6581 63.375 75.6469 63.3527 75.6469 63.3304C75.6469 63.3082 75.6692 63.297 75.6915 63.297L76.0031 63.3193C76.0254 63.3193 76.0365 63.3416 76.0365 63.3638C76.0254 63.3861 76.0031 63.3972 75.992 63.3972ZM74.9457 63.3304L74.6341 63.3081C74.6118 63.3081 74.6007 63.2859 74.6007 63.2636C74.6007 63.2413 74.6229 63.2302 74.6452 63.2302L74.9568 63.2525C74.9791 63.2525 74.9902 63.2747 74.9902 63.297C74.9902 63.3193 74.968 63.3304 74.9457 63.3304ZM73.9106 63.2636L73.5989 63.2413C73.5767 63.2413 73.5655 63.2191 73.5655 63.1968C73.5655 63.1745 73.5878 63.1634 73.6101 63.1634L73.9217 63.1857C73.944 63.1857 73.9551 63.2079 73.9551 63.2302C73.9551 63.2413 73.9328 63.2636 73.9106 63.2636ZM72.8754 63.1857L72.5638 63.1634C72.5415 63.1634 72.5304 63.1411 72.5304 63.1189C72.5304 63.0966 72.5526 63.0855 72.5749 63.0855L72.8866 63.1077C72.9088 63.1077 72.92 63.13 72.92 63.1523C72.9088 63.1745 72.8977 63.1857 72.8754 63.1857ZM89.2596 63.1189C89.2484 63.1189 89.2262 63.1077 89.2262 63.0966C89.215 63.0743 89.2262 63.0521 89.2484 63.0521L89.549 62.9518C89.5712 62.9407 89.5935 62.9518 89.5935 62.9741C89.6046 62.9964 89.5935 63.0186 89.5712 63.0186L89.2707 63.1189C89.2596 63.1189 89.2596 63.1189 89.2596 63.1189ZM71.9293 63.0075C71.9071 63.0075 71.896 62.9964 71.896 62.9741C71.8737 62.8739 71.8626 62.7737 71.8403 62.6623C71.8403 62.6401 71.8514 62.6178 71.8737 62.6178C71.8959 62.6178 71.9182 62.6289 71.9182 62.6512C71.9405 62.7626 71.9516 62.8628 71.9739 62.963C71.9739 62.9852 71.9627 63.0075 71.9293 63.0075C71.9405 63.0075 71.9405 63.0075 71.9293 63.0075ZM90.2391 62.796C90.2279 62.796 90.2057 62.7848 90.2057 62.7737C90.1945 62.7514 90.2057 62.7291 90.2279 62.7291L90.5285 62.6289C90.5507 62.6178 90.573 62.6289 90.573 62.6512C90.5841 62.6735 90.573 62.6957 90.5507 62.6957L90.2502 62.796C90.2502 62.796 90.2502 62.796 90.2391 62.796ZM91.2297 62.473C91.2185 62.473 91.1963 62.4619 91.1963 62.4508C91.1852 62.4285 91.1963 62.4062 91.2185 62.4062L91.5191 62.306C91.5413 62.2949 91.5636 62.306 91.5636 62.3283C91.5747 62.3506 91.5636 62.3728 91.5413 62.3728L91.2408 62.473C91.2408 62.473 91.2408 62.473 91.2297 62.473ZM92.2203 62.1501C92.2092 62.1501 92.1869 62.139 92.1869 62.1279C92.1758 62.1056 92.1869 62.0833 92.2092 62.0833L92.5097 61.9831C92.5319 61.972 92.5542 61.9831 92.5542 62.0054C92.5653 62.0277 92.5542 62.0499 92.5319 62.0499L92.2314 62.1501H92.2203ZM71.7624 61.9831C71.7401 61.9831 71.729 61.972 71.729 61.9497C71.7179 61.8495 71.6956 61.7493 71.6845 61.6379C71.6845 61.6157 71.6956 61.5934 71.7179 61.5934C71.7401 61.5934 71.7624 61.6045 71.7624 61.6268C71.7735 61.727 71.7958 61.8384 71.8069 61.9386C71.7958 61.9608 71.7846 61.9831 71.7624 61.9831ZM93.2109 61.8272C93.1998 61.8272 93.1775 61.8161 93.1775 61.805C93.1664 61.7827 93.1775 61.7604 93.1998 61.7604L93.5003 61.6602C93.5226 61.6491 93.5448 61.6602 93.5448 61.6825C93.556 61.7048 93.5448 61.727 93.5226 61.727L93.222 61.8272H93.2109ZM94.2015 61.5155C94.1904 61.5155 94.1681 61.5043 94.1681 61.4932C94.157 61.4709 94.1681 61.4486 94.1904 61.4486L94.4909 61.3484C94.5132 61.3373 94.5354 61.3484 94.5354 61.3707C94.5466 61.393 94.5354 61.4152 94.5132 61.4152L94.2127 61.5155C94.2015 61.5155 94.2015 61.5155 94.2015 61.5155ZM95.181 61.1926C95.1699 61.1926 95.1476 61.1814 95.1476 61.1703C95.1365 61.148 95.1476 61.1257 95.1699 61.1257L95.4704 61.0255C95.4927 61.0144 95.5149 61.0255 95.5149 61.0478C95.5261 61.0701 95.5149 61.0923 95.4927 61.0923L95.1921 61.1926C95.1921 61.1926 95.1921 61.1926 95.181 61.1926ZM71.6066 60.9587C71.5843 60.9587 71.5732 60.9476 71.5732 60.9253C71.562 60.8251 71.5398 60.7249 71.5286 60.6135C71.5286 60.5913 71.5398 60.569 71.562 60.569C71.5843 60.569 71.6066 60.5801 71.6066 60.6024C71.6177 60.7026 71.6399 60.814 71.6511 60.9142C71.6399 60.9365 71.6288 60.9587 71.6066 60.9587ZM96.1716 60.8696C96.1605 60.8696 96.1382 60.8585 96.1382 60.8474C96.1271 60.8251 96.1382 60.8028 96.1605 60.8028L96.461 60.7026C96.4833 60.6915 96.5055 60.7026 96.5055 60.7249C96.5167 60.7472 96.5055 60.7694 96.4833 60.7694L96.1828 60.8696C96.1828 60.8696 96.1828 60.8696 96.1716 60.8696ZM97.1622 60.5467C97.1511 60.5467 97.1289 60.5356 97.1289 60.5245C97.1177 60.5022 97.1289 60.4799 97.1511 60.4799L97.4516 60.3797C97.4739 60.3686 97.4962 60.3797 97.4962 60.402C97.5073 60.4243 97.4962 60.4465 97.4739 60.4465L97.1734 60.5467H97.1622ZM98.1529 60.2238C98.1417 60.2238 98.1195 60.2127 98.1195 60.2016C98.1083 60.1793 98.1195 60.157 98.1417 60.157L98.4423 60.0568C98.4645 60.0457 98.4868 60.0568 98.4868 60.0791C98.4979 60.1013 98.4868 60.1236 98.4645 60.1236L98.164 60.2238H98.1529ZM71.4619 59.9232C71.4396 59.9232 71.4285 59.9121 71.4285 59.8898C71.4173 59.7896 71.4062 59.6782 71.3951 59.578C71.3951 59.5557 71.4062 59.5335 71.4285 59.5335C71.4507 59.5335 71.473 59.5446 71.473 59.5669C71.4841 59.6671 71.4953 59.7784 71.5064 59.8787C71.5064 59.9009 71.4952 59.9232 71.4619 59.9232C71.473 59.9232 71.4619 59.9232 71.4619 59.9232ZM99.099 59.8787C99.0767 59.8787 99.0656 59.8675 99.0656 59.8453C99.0544 59.745 99.0433 59.6337 99.0322 59.5335C99.0322 59.5112 99.0433 59.4889 99.0656 59.4889C99.0878 59.4889 99.1101 59.5001 99.1101 59.5223C99.1212 59.6226 99.1323 59.7339 99.1435 59.8341C99.1323 59.8564 99.1212 59.8787 99.099 59.8787ZM71.3506 58.8877C71.3283 58.8877 71.3172 58.8765 71.3172 58.8543C71.306 58.754 71.2949 58.6427 71.2838 58.5425C71.2838 58.5202 71.2949 58.4979 71.3172 58.4979C71.3394 58.4979 71.3617 58.5091 71.3617 58.5314C71.3728 58.6316 71.3839 58.7429 71.3951 58.8431C71.3951 58.8654 71.3728 58.8877 71.3506 58.8877ZM98.9543 58.8431C98.932 58.8431 98.9209 58.832 98.9209 58.8097C98.9097 58.7095 98.8875 58.6093 98.8652 58.4979C98.8652 58.4757 98.8763 58.4534 98.8986 58.4534C98.9209 58.4534 98.9431 58.4645 98.9431 58.4868C98.9654 58.587 98.9765 58.6872 98.9988 58.7986C98.9988 58.8209 98.9876 58.8431 98.9543 58.8431C98.9654 58.8431 98.9543 58.8431 98.9543 58.8431ZM71.2615 57.8521C71.2392 57.8521 71.2281 57.841 71.2281 57.8187C71.217 57.7185 71.217 57.6072 71.2059 57.507C71.2059 57.4847 71.217 57.4624 71.2392 57.4624C71.2615 57.4624 71.2838 57.4736 71.2838 57.4958C71.2949 57.596 71.2949 57.7074 71.306 57.8076C71.306 57.8299 71.2838 57.8521 71.2615 57.8521ZM98.7762 57.8187C98.7539 57.8187 98.7428 57.8076 98.7428 57.7853C98.7205 57.6851 98.6983 57.5849 98.676 57.4847C98.676 57.4624 98.6871 57.4401 98.7094 57.4401C98.7317 57.4401 98.7539 57.4513 98.7539 57.4736C98.7762 57.5738 98.7984 57.674 98.8207 57.7853C98.8207 57.7965 98.7984 57.8187 98.7762 57.8187ZM71.217 56.8166C71.1947 56.8166 71.1836 56.7943 71.1836 56.7832C71.1836 56.683 71.1836 56.5716 71.1836 56.4714C71.1836 56.4492 71.2059 56.4269 71.217 56.4269C71.2393 56.4269 71.2504 56.4492 71.2504 56.4603C71.2504 56.5605 71.2504 56.6719 71.2504 56.7721C71.2504 56.7943 71.2393 56.8166 71.217 56.8166ZM98.5536 56.8055C98.5313 56.8055 98.5202 56.7943 98.5202 56.7721C98.4979 56.6719 98.4756 56.5716 98.4534 56.4714C98.4534 56.4492 98.4645 56.4269 98.4868 56.4269C98.509 56.4269 98.5313 56.438 98.5313 56.4603C98.5536 56.5605 98.5758 56.6607 98.5981 56.7609C98.5981 56.7832 98.587 56.8055 98.5536 56.8055C98.5647 56.8055 98.5536 56.8055 98.5536 56.8055ZM98.3087 55.7922C98.2864 55.7922 98.2753 55.7811 98.2753 55.7588C98.253 55.6586 98.2196 55.5584 98.1974 55.4582C98.1863 55.4359 98.2085 55.4136 98.2196 55.4136C98.2419 55.4025 98.2642 55.4248 98.2642 55.4359C98.2864 55.5361 98.3198 55.6363 98.3421 55.7365C98.3421 55.7699 98.3309 55.7922 98.3087 55.7922ZM71.2615 55.7922C71.2504 55.7922 71.2392 55.7811 71.2281 55.7699C71.217 55.7477 71.217 55.7254 71.2392 55.7143C71.2504 55.7031 71.2615 55.7031 71.2838 55.7031L71.562 55.6586C71.5843 55.6586 71.6066 55.6697 71.6066 55.692C71.6066 55.7143 71.5954 55.7365 71.5732 55.7365L71.2949 55.7811H71.2838C71.2726 55.7811 71.2615 55.7922 71.2615 55.7922ZM72.2855 55.6363C72.2633 55.6363 72.2521 55.6252 72.2521 55.6029C72.2521 55.5807 72.2633 55.5584 72.2855 55.5584L72.5972 55.5138C72.6194 55.5138 72.6417 55.525 72.6417 55.5473C72.6417 55.5695 72.6306 55.5918 72.6083 55.5918L72.2855 55.6363ZM73.3207 55.4916C73.2984 55.4916 73.2873 55.4804 73.2873 55.4582C73.2873 55.4359 73.2984 55.4136 73.3207 55.4136L73.6323 55.3691C73.6546 55.3691 73.6768 55.3802 73.6768 55.4025C73.6768 55.4248 73.6657 55.447 73.6434 55.447L73.3207 55.4916ZM74.3447 55.358C74.3224 55.358 74.3113 55.3468 74.3113 55.3246C74.3113 55.3023 74.3224 55.28 74.3447 55.28L74.6563 55.2355C74.6786 55.2355 74.7008 55.2466 74.7008 55.2689C74.7008 55.2912 74.6897 55.3134 74.6675 55.3134L74.3447 55.358C74.3558 55.3468 74.3447 55.358 74.3447 55.358ZM75.3798 55.2132C75.3575 55.2132 75.3464 55.2021 75.3464 55.1798C75.3464 55.1575 75.3575 55.1353 75.3798 55.1353L75.6915 55.0907C75.7137 55.0907 75.736 55.1019 75.736 55.1241C75.736 55.1464 75.7249 55.1687 75.7026 55.1687L75.3798 55.2132ZM76.4038 55.0685C76.3816 55.0685 76.3704 55.0573 76.3704 55.0351C76.3704 55.0128 76.3816 54.9905 76.4038 54.9905L76.7155 54.946C76.7377 54.946 76.76 54.9571 76.76 54.9794C76.76 55.0016 76.7489 55.0239 76.7266 55.0239L76.4038 55.0685C76.4149 55.0685 76.4038 55.0685 76.4038 55.0685ZM77.439 54.9348C77.4167 54.9348 77.4056 54.9237 77.4056 54.9014C77.4056 54.8792 77.4167 54.8569 77.439 54.8569L77.7506 54.8124C77.7729 54.8124 77.7951 54.8235 77.7951 54.8458C77.7951 54.868 77.784 54.8903 77.7617 54.8903L77.439 54.9348ZM78.463 54.8012C78.4407 54.8012 78.4296 54.7901 78.4296 54.7678C78.4296 54.7456 78.4407 54.7233 78.463 54.7233L78.7746 54.6787C78.7969 54.6787 78.8191 54.6899 78.8191 54.7121C78.8191 54.7344 78.808 54.7567 78.7857 54.7567L78.463 54.8012C78.4741 54.8012 78.4741 54.8012 78.463 54.8012ZM98.0193 54.8012C97.997 54.8012 97.9859 54.7901 97.9859 54.7678C97.9525 54.6676 97.9302 54.5674 97.8969 54.4672C97.8857 54.4449 97.8969 54.4226 97.9191 54.4226C97.9414 54.4115 97.9636 54.4226 97.9636 54.4449C97.997 54.5451 98.0193 54.6453 98.0527 54.7455C98.0638 54.7678 98.0527 54.7901 98.0193 54.8012C98.0304 54.8012 98.0304 54.7901 98.0193 54.8012ZM79.4981 54.6676C79.4758 54.6676 79.4647 54.6565 79.4647 54.6342C79.4647 54.6119 79.4758 54.5897 79.4981 54.5897L79.8098 54.5451C79.832 54.5451 79.8543 54.5563 79.8543 54.5785C79.8543 54.6008 79.8431 54.6231 79.8209 54.6231L79.4981 54.6676ZM80.5332 54.534C80.511 54.534 80.4998 54.5229 80.4998 54.5006C80.4998 54.4783 80.511 54.456 80.5332 54.456L80.8449 54.4115C80.8672 54.4115 80.8894 54.4226 80.8894 54.4449C80.8894 54.4672 80.8783 54.4895 80.856 54.4895L80.5332 54.534ZM81.5572 54.4004C81.535 54.4004 81.5239 54.3892 81.5239 54.367C81.5239 54.3447 81.535 54.3224 81.5572 54.3224L81.8689 54.2779C81.8912 54.2779 81.9134 54.289 81.9134 54.3113C81.9134 54.3336 81.9023 54.3558 81.88 54.3558L81.5572 54.4004C81.5684 54.4004 81.5572 54.4004 81.5572 54.4004ZM82.6035 54.2668L82.5924 54.1888L82.904 54.1554C82.9263 54.1554 82.9486 54.1665 82.9486 54.1888C82.9486 54.2111 82.9374 54.2334 82.9152 54.2334L82.6035 54.2668ZM83.6275 54.1331C83.6053 54.1331 83.5941 54.122 83.5941 54.0997C83.5941 54.0775 83.6053 54.0552 83.6275 54.0552L83.9392 54.0218C83.9614 54.0218 83.9837 54.0329 83.9837 54.0552C83.9837 54.0775 83.9726 54.0997 83.9503 54.0997L83.6275 54.1331ZM84.6515 54.0107C84.6293 54.0107 84.6181 53.9995 84.6181 53.9773C84.6181 53.955 84.6293 53.9327 84.6515 53.9327L84.9632 53.8993C84.9855 53.8993 85.0077 53.9104 85.0077 53.9327C85.0077 53.955 84.9966 53.9773 84.9743 53.9773L84.6515 54.0107C84.6627 54.0107 84.6515 54.0107 84.6515 54.0107ZM85.6867 53.8882C85.6644 53.8882 85.6533 53.877 85.6533 53.8548C85.6533 53.8325 85.6644 53.8102 85.6867 53.8102L85.9983 53.7768C86.0206 53.7768 86.0428 53.788 86.0428 53.8102C86.0428 53.8325 86.0317 53.8548 86.0095 53.8548L85.6867 53.8882ZM97.7188 53.7991C97.7076 53.7991 97.6854 53.788 97.6854 53.7768C97.652 53.6766 97.6186 53.5764 97.5852 53.4762C97.5741 53.4539 97.5852 53.4317 97.6075 53.4317C97.6297 53.4205 97.652 53.4317 97.652 53.4539C97.6854 53.543 97.7188 53.6432 97.7522 53.7546C97.7633 53.7768 97.7522 53.7991 97.7299 53.7991C97.7188 53.7991 97.7188 53.7991 97.7188 53.7991ZM86.7218 53.7657C86.6996 53.7657 86.6884 53.7546 86.6884 53.7323C86.6884 53.71 86.6996 53.6878 86.7218 53.6878L87.0335 53.6543C87.0557 53.6543 87.078 53.6655 87.078 53.6878C87.078 53.71 87.0669 53.7323 87.0446 53.7323L86.7218 53.7657ZM87.7458 53.6432C87.7236 53.6432 87.7124 53.6321 87.7124 53.6098C87.7124 53.5875 87.7236 53.5653 87.7458 53.5653L88.0575 53.5319C88.0797 53.5319 88.102 53.543 88.102 53.5653C88.102 53.5875 88.0909 53.6098 88.0686 53.6098L87.7458 53.6432C87.757 53.6432 87.757 53.6432 87.7458 53.6432ZM88.781 53.5207C88.7587 53.5207 88.7476 53.5096 88.7476 53.4873C88.7476 53.4651 88.7587 53.4428 88.781 53.4428L89.0926 53.4094C89.1149 53.4094 89.1371 53.4205 89.1371 53.4428C89.1371 53.4651 89.126 53.4873 89.1037 53.4873L88.781 53.5207ZM89.8161 53.4094C89.7938 53.4094 89.7827 53.3982 89.7827 53.376C89.7827 53.3537 89.7938 53.3314 89.8161 53.3314L90.1278 53.298C90.15 53.298 90.1723 53.3092 90.1723 53.3314C90.1723 53.3537 90.1611 53.376 90.1389 53.376L89.8161 53.4094ZM90.8512 53.298C90.829 53.298 90.8178 53.2869 90.8178 53.2646C90.8178 53.2424 90.829 53.2201 90.8512 53.2201L91.1629 53.1867C91.1851 53.1867 91.2074 53.1978 91.2074 53.2201C91.2074 53.2424 91.1963 53.2646 91.174 53.2646L90.8512 53.298ZM91.8864 53.1978C91.8641 53.1978 91.853 53.1867 91.853 53.1644C91.853 53.1422 91.8641 53.1199 91.8864 53.1199L92.198 53.0865C92.2203 53.0865 92.2425 53.0976 92.2425 53.1199C92.2425 53.1421 92.2314 53.1644 92.2092 53.1644L91.8864 53.1978ZM92.9215 53.0976C92.8993 53.0976 92.8881 53.0865 92.8881 53.0642C92.8881 53.0419 92.8993 53.0197 92.9215 53.0197L93.2332 52.9863C93.2554 52.9863 93.2777 52.9974 93.2777 53.0197C93.2777 53.0419 93.2666 53.0642 93.2443 53.0642L92.9215 53.0976ZM93.9567 53.0085C93.9344 53.0085 93.9233 52.9974 93.9233 52.9751C93.9233 52.9529 93.9344 52.9306 93.9567 52.9306C94.0568 52.9195 94.1681 52.9083 94.2683 52.9083C94.2906 52.9083 94.3128 52.9195 94.3128 52.9417C94.3128 52.964 94.3017 52.9863 94.2794 52.9863C94.1681 52.9863 94.0568 52.9974 93.9567 53.0085ZM94.9918 52.9195C94.9695 52.9195 94.9584 52.9083 94.9584 52.8861C94.9584 52.8638 94.9695 52.8415 94.9918 52.8415C95.1031 52.8304 95.2033 52.8304 95.3034 52.8192C95.3257 52.8192 95.348 52.8304 95.348 52.8526C95.348 52.8749 95.3368 52.8972 95.3146 52.8972C95.2033 52.9083 95.1031 52.9195 94.9918 52.9195ZM96.0269 52.8526C96.0047 52.8526 95.9935 52.8415 95.9935 52.8192C95.9935 52.797 96.0047 52.7747 96.0269 52.7747C96.1382 52.7636 96.2384 52.7636 96.3386 52.7636C96.3608 52.7636 96.3831 52.7747 96.3831 52.797C96.3831 52.8192 96.372 52.8415 96.3497 52.8415C96.2384 52.8415 96.1382 52.8526 96.0269 52.8526ZM97.3737 52.8192C97.3626 52.8192 97.3515 52.8192 97.3515 52.8081C97.2624 52.8081 97.1622 52.8081 97.0621 52.8081C97.0398 52.8081 97.0287 52.7858 97.0287 52.7747C97.0287 52.7524 97.0398 52.7302 97.0621 52.7302C97.1622 52.7302 97.2513 52.7302 97.3403 52.7302C97.3626 52.7302 97.3737 52.7413 97.396 52.7524C97.4182 52.7636 97.4182 52.7858 97.4071 52.8081C97.396 52.8192 97.3849 52.8192 97.3737 52.8192Z" fill="white"/>
<path d="M88.1948 66.1586L84.6441 66.6151C84.1767 66.6708 83.7426 66.3813 83.6313 65.9248L82.7853 62.5621C82.6518 62.0276 83.0191 61.4932 83.5645 61.4264L87.8275 60.8808C88.3617 60.8139 88.8515 61.2148 88.8737 61.7604L89.0073 65.2122C89.0184 65.691 88.6734 66.1029 88.1948 66.1586Z" fill="url(#paint19_linear_869_27444)"/>
<path d="M87.6823 65.5908L84.9888 65.936C84.6326 65.9805 84.2987 65.7578 84.2208 65.4126L83.5752 62.8516C83.475 62.4397 83.7533 62.0388 84.1651 61.9831L87.4041 61.5711C87.8159 61.5155 88.1832 61.8272 88.1944 62.2392L88.2945 64.867C88.3057 65.2345 88.0385 65.5462 87.6823 65.5908Z" fill="url(#paint20_linear_869_27444)"/>
<path d="M85.5678 38.3886C86.4026 41.8403 86.4249 45.2253 86.3025 46.4613C86.2579 46.9289 85.8795 47.2852 85.412 47.3186C84.8889 47.352 84.1654 47.4077 83.5198 47.4411C82.8186 47.4856 82.0283 47.0403 81.5052 46.6617C81.2381 46.4724 80.893 46.773 81.0377 47.0625C81.2937 47.5636 81.7389 47.9644 82.1842 48.2985C82.4513 48.4989 83.3417 48.8664 83.275 49.2672C83.2527 49.3897 83.1748 49.501 83.0969 49.6012C82.6071 50.1914 81.8614 50.5143 81.1156 50.737C81.0266 50.7704 80.9264 50.7927 80.8596 50.8706C80.8374 51.3494 82.3066 51.8727 82.685 52.0063C83.2527 52.1956 83.8537 52.2736 84.4437 52.2068C85.924 52.0509 87.2819 51.0376 88.0722 49.8017C90.1981 46.5169 91.3001 42.553 91.7008 39.5243C89.7529 37.5423 86.7588 38.0434 85.5678 38.3886Z" fill="url(#paint21_linear_869_27444)"/>
<path d="M91.7241 39.8361C93.3046 27.922 84.1219 18.7692 84.1219 18.7692L78.668 25.1383C82.8085 30.3048 84.7786 35.0371 85.6802 38.7561C86.8712 38.4109 89.754 37.8541 91.7241 39.8361Z" fill="#BDD0FB"/>
<path d="M85.5457 38.7003C85.3898 38.7003 85.2563 38.6001 85.2229 38.4442C84.1098 33.8567 81.7724 29.3249 78.2774 24.9601C78.1661 24.8153 78.1884 24.6038 78.3331 24.4813C78.4778 24.37 78.6893 24.3922 78.8117 24.537C82.3735 28.9797 84.7554 33.6118 85.8907 38.2884C85.9352 38.4665 85.8239 38.6558 85.6458 38.7003C85.6013 38.6892 85.579 38.7003 85.5457 38.7003Z" fill="#91B3FA"/>
<path d="M11.6253 109.295C11.6253 109.239 11.6253 109.183 11.603 109.116C10.7237 105.631 6.37166 103.471 6.37166 103.471L4.64643 103.605C3.65581 106.678 3.77825 108.56 3.9452 109.395C3.9452 109.417 3.95634 109.439 3.96747 109.462C5.38104 109.595 8.30837 109.673 11.6253 109.295Z" fill="url(#paint22_linear_869_27444)"/>
<path d="M3.95703 109.461C4.03494 109.74 4.23529 109.963 4.50243 110.018C6.52818 110.441 9.74491 110.096 11.1028 109.929C11.4034 109.885 11.6148 109.617 11.626 109.306C8.30907 109.673 5.38174 109.595 3.95703 109.461Z" fill="url(#paint23_linear_869_27444)"/>
<path d="M3.94531 101.033L4.67993 104.551C4.73558 104.807 4.93593 105.008 5.16967 105.03C5.45906 105.052 5.88202 105.074 6.30498 105.008C6.68342 104.952 6.93942 104.573 6.87264 104.161L6.36064 101.033H3.94531Z" fill="url(#paint24_linear_869_27444)"/>
<path d="M19.0934 109.417C17.1901 109.361 16.1995 109.139 15.6875 108.927C15.6875 109.116 15.6875 109.306 15.6986 109.506C15.7098 109.718 15.8656 109.896 16.0548 109.885L26.5286 109.818C26.8625 109.818 27.0629 109.428 26.9182 109.116C25.538 109.25 22.043 109.506 19.0934 109.417Z" fill="url(#paint25_linear_869_27444)"/>
<path d="M26.9182 109.139C26.9071 109.116 26.8959 109.083 26.8737 109.061C25.9498 107.769 23.5902 105.197 18.9376 104.083L16.7004 104.017C16.7004 104.017 15.7098 105.742 15.6875 108.949C16.1995 109.161 17.179 109.384 19.0934 109.439C22.043 109.506 25.538 109.25 26.9182 109.139Z" fill="url(#paint26_linear_869_27444)"/>
<path d="M16.1992 100.721C16.2326 100.888 16.7001 103.393 16.8782 104.362C16.9227 104.596 17.1008 104.763 17.3123 104.774C17.6907 104.796 18.314 104.796 18.8372 104.651C19.1265 104.573 19.3158 104.284 19.2935 103.961L19.0486 99.9969L16.1992 100.721Z" fill="url(#paint27_linear_869_27444)"/>
<path d="M14.5087 54.4559C14.5087 54.4559 17.5807 75.5674 19.7957 100.687C19.8402 101.155 19.4618 101.567 19.0054 101.656C18.3265 101.801 17.3359 101.968 16.5122 101.946C16.067 101.934 15.6997 101.611 15.6329 101.177C14.876 96.7456 9.48884 72.973 8.07526 67.7396C8.07526 67.7396 6.45021 89.9646 6.97334 101.489C6.98447 101.778 6.77299 102.023 6.49473 102.057C6.06064 102.101 5.37055 102.146 4.49123 102.057C4.15732 102.023 3.89019 101.767 3.83453 101.433C3.28914 97.6921 0.19485 75.3781 0.328417 59.2995C0.339547 58.3976 1.39695 50.9485 1.39695 50.9485L14.5087 54.4559Z" fill="url(#paint28_linear_869_27444)"/>
<path d="M0.930908 55.6696C0.619253 55.5583 0.396643 55.2688 0.363251 54.9347C-0.0485784 50.9708 -2.02981 26.3964 10.4586 16.2861C10.4586 16.2861 11.171 14.4155 17.059 19.0141C22.9471 23.6239 19.7971 28.4452 18.3836 35.1038C16.6695 43.1765 13.6865 49.7571 15.011 54.7232C15.1001 55.0683 14.922 55.4247 14.5881 55.5471C10.0134 57.2285 5.46103 57.2842 0.930908 55.6696Z" fill="#379CDC"/>
<path d="M15.3224 8.92603C15.3224 9.2712 10.3359 16.364 10.3359 16.364C10.3359 16.364 11.2264 18.1233 15.5005 19.5597L19.1847 11.9769L15.3224 8.92603Z" fill="url(#paint29_linear_869_27444)"/>
<path d="M19.2525 4.87299C19.2525 4.87299 21.0223 8.94829 21.1447 11.0862C21.2671 13.224 21.7235 14.6159 19.2525 15.039C16.7815 15.4732 14.7001 14.2373 13.5648 12.1106C13.5648 12.1106 11.7951 8.82581 12.1958 7.47851C12.5853 6.13121 19.2525 4.87299 19.2525 4.87299Z" fill="url(#paint30_linear_869_27444)"/>
<path d="M14.4103 10.574L14.555 10.5072C14.7331 10.4293 14.811 10.2177 14.7219 10.0396C14.3769 9.36034 13.6979 7.82375 14.5661 7.45631C15.7014 6.98865 20.1759 6.0756 21.1443 4.48334C22.0792 2.95788 21.2556 0.975899 20.0089 0.419163C19.931 0.385759 19.8309 0.408028 19.7863 0.497106L19.6862 0.697531C19.6194 0.831148 19.419 0.808878 19.3745 0.664127C19.33 0.519375 19.1519 0.497106 19.074 0.619588C18.7735 1.09838 17.9721 1.86668 15.8239 2.26753C12.7741 2.8354 10.7595 4.06022 10.7038 6.17581C10.7038 6.30943 10.5591 6.38737 10.4478 6.30943C10.2252 6.17581 9.85791 6.10901 9.37929 6.50986C8.54451 7.21134 8.88955 9.03744 10.7261 10.5518C10.8151 10.6186 10.8151 10.7633 10.715 10.819C10.381 11.0306 9.88017 11.5539 11.1713 12.2442C12.507 12.9569 13.4976 12.9012 13.876 12.8344C13.9762 12.8232 14.0319 12.723 14.0096 12.634L13.5978 10.7856C13.5755 10.6854 13.6534 10.5852 13.7647 10.5852H14.4103V10.574Z" fill="url(#paint31_linear_869_27444)"/>
<path d="M14.4875 10.9637C14.4875 10.9637 13.8086 8.35814 12.6398 9.09303C11.4711 9.82792 13.2409 12.0103 14.187 12.1105L14.4875 10.9637Z" fill="url(#paint32_linear_869_27444)"/>
<path d="M18.9531 21.1631L19.2982 30.3938C20.2777 30.7279 21.2015 30.9951 22.0919 31.1844C22.6485 29.4028 23.8617 27.2093 24.8634 25.5836C21.1904 24.292 18.9531 21.1631 18.9531 21.1631Z" fill="#379CDC"/>
<path d="M37.2647 21.0073C32.2337 26.441 28.1599 26.7639 24.8653 25.5948C23.8635 27.2204 22.6503 29.414 22.0938 31.1955C35.5172 34.1462 38.6782 21.7978 38.6782 21.7978L37.2647 21.0073Z" fill="url(#paint33_linear_869_27444)"/>
<path d="M38.2773 20.4283C38.2773 20.4283 38.8561 19.8047 39.9247 20.0051C40.9932 20.2056 41.9504 20.573 42.6182 20.0051C43.2861 19.4373 43.5198 20.1944 43.5198 20.1944L41.5163 21.7199L38.2773 20.4283Z" fill="url(#paint34_linear_869_27444)"/>
<path d="M37.0859 21.486C37.0859 21.486 37.4866 19.8269 38.6776 20.0496C39.8686 20.2723 42.5955 21.7532 43.2856 21.486C43.9869 21.2188 44.8773 20.5618 45.3448 20.7956L44.5323 21.7978C44.5323 21.7978 46.6137 20.5952 46.9698 21.3301L43.5082 23.2787C43.5082 23.2898 38.4439 22.7776 37.0859 21.486Z" fill="url(#paint35_linear_869_27444)"/>
<path d="M13.3633 33.2443C13.3633 33.2443 22.8242 41.1722 33.0309 37.7093C33.6654 37.4977 34.3555 37.5423 34.9454 37.854L37.8838 39.4018C39.1193 40.0476 40.6442 39.6245 41.3566 38.4331C41.7684 37.7538 42.1134 36.9744 42.1802 36.2284L36.4369 33.9012L36.8598 33.1997C36.8598 33.1997 34.0549 32.9659 33.3203 34.9702C33.3203 34.9702 27.9777 37.1971 18.9731 27.2761C18.9731 27.2761 14.8882 30.7501 13.3633 33.2443Z" fill="url(#paint36_linear_869_27444)"/>
<path d="M12.8537 33.1664C12.8203 33.1664 12.7869 33.1552 12.7646 33.1441C8.77989 30.4495 6.90996 26.1069 6.8877 26.0624C6.85431 25.9845 6.8877 25.8842 6.97675 25.8508C7.05466 25.8174 7.15483 25.8508 7.18823 25.9399C7.21049 25.9845 9.04702 30.2379 12.9427 32.8769C13.0206 32.9214 13.0318 33.0327 12.9872 33.0995C12.9538 33.133 12.9093 33.1664 12.8537 33.1664Z" fill="#006ED2"/>
<path d="M18.7858 27.1424C18.7301 27.1424 18.6856 27.1202 18.6522 27.0645C18.6411 27.0422 17.4279 25.1493 15.1016 20.9961C14.3892 19.7156 13.4543 18.9139 12.319 18.591C10.4379 18.0676 8.63475 19.0698 8.61249 19.0809C8.53458 19.1254 8.4344 19.1032 8.38988 19.0252C8.34536 18.9473 8.36762 18.8471 8.44553 18.8025C8.52345 18.758 10.3822 17.7113 12.3969 18.2792C13.6212 18.6244 14.623 19.4817 15.3798 20.8402C17.695 24.9823 18.9082 26.8641 18.9194 26.8863C18.9639 26.9643 18.9416 27.0645 18.8748 27.109C18.8526 27.1313 18.8192 27.1424 18.7858 27.1424Z" fill="#006ED2"/>
</g>
<defs>
<linearGradient id="paint0_linear_869_27444" x1="35.2506" y1="33.7359" x2="51.8386" y2="33.7359" gradientUnits="userSpaceOnUse">
<stop stop-color="#FF928E"/>
<stop offset="1" stop-color="#FEB3B1"/>
</linearGradient>
<linearGradient id="paint1_linear_869_27444" x1="70.3983" y1="10.6049" x2="75.9675" y2="30.4236" gradientUnits="userSpaceOnUse">
<stop stop-color="#FF928E"/>
<stop offset="1" stop-color="#FEB3B1"/>
</linearGradient>
<linearGradient id="paint2_linear_869_27444" x1="66.1546" y1="7.34182" x2="75.7162" y2="11.4975" gradientUnits="userSpaceOnUse">
<stop stop-color="#FF928E"/>
<stop offset="1" stop-color="#FEB3B1"/>
</linearGradient>
<linearGradient id="paint3_linear_869_27444" x1="73.0663" y1="13.0723" x2="65.2355" y2="4.75677" gradientUnits="userSpaceOnUse">
<stop stop-color="#09005D"/>
<stop offset="1" stop-color="#1A0F91"/>
</linearGradient>
<linearGradient id="paint4_linear_869_27444" x1="65.5556" y1="8.71248" x2="75.1172" y2="12.8681" gradientUnits="userSpaceOnUse">
<stop stop-color="#FF928E"/>
<stop offset="1" stop-color="#FEB3B1"/>
</linearGradient>
<linearGradient id="paint5_linear_869_27444" x1="78.3681" y1="111.671" x2="78.3681" y2="95.1175" gradientUnits="userSpaceOnUse">
<stop stop-color="#4042E2"/>
<stop offset="1" stop-color="#4F52FF"/>
</linearGradient>
<linearGradient id="paint6_linear_869_27444" x1="78.7632" y1="103.667" x2="79.5801" y2="83.699" gradientUnits="userSpaceOnUse">
<stop stop-color="#09005D"/>
<stop offset="1" stop-color="#1A0F91"/>
</linearGradient>
<linearGradient id="paint7_linear_869_27444" x1="83.2131" y1="104.065" x2="79.8663" y2="104.065" gradientUnits="userSpaceOnUse">
<stop stop-color="#FF928E"/>
<stop offset="1" stop-color="#FEB3B1"/>
</linearGradient>
<linearGradient id="paint8_linear_869_27444" x1="105.717" y1="111.671" x2="105.717" y2="95.1176" gradientUnits="userSpaceOnUse">
<stop stop-color="#4042E2"/>
<stop offset="1" stop-color="#4F52FF"/>
</linearGradient>
<linearGradient id="paint9_linear_869_27444" x1="104.675" y1="104.727" x2="105.492" y2="84.759" gradientUnits="userSpaceOnUse">
<stop stop-color="#09005D"/>
<stop offset="1" stop-color="#1A0F91"/>
</linearGradient>
<linearGradient id="paint10_linear_869_27444" x1="104.487" y1="101.274" x2="100.487" y2="101.274" gradientUnits="userSpaceOnUse">
<stop stop-color="#FF928E"/>
<stop offset="1" stop-color="#FEB3B1"/>
</linearGradient>
<linearGradient id="paint11_linear_869_27444" x1="74.9144" y1="102.708" x2="131.719" y2="-1.83892" gradientUnits="userSpaceOnUse">
<stop stop-color="#09005D"/>
<stop offset="1" stop-color="#1A0F91"/>
</linearGradient>
<linearGradient id="paint12_linear_869_27444" x1="86.6706" y1="73.9537" x2="85.2226" y2="57.3631" gradientUnits="userSpaceOnUse">
<stop stop-color="#E1473D"/>
<stop offset="1" stop-color="#E9605A"/>
</linearGradient>
<linearGradient id="paint13_linear_869_27444" x1="79.1277" y1="55.9125" x2="78.4556" y2="51.9642" gradientUnits="userSpaceOnUse">
<stop stop-color="#E1473D"/>
<stop offset="1" stop-color="#E9605A"/>
</linearGradient>
<linearGradient id="paint14_linear_869_27444" x1="78.1606" y1="49.9798" x2="80.4361" y2="61.2496" gradientUnits="userSpaceOnUse">
<stop stop-color="#E1473D"/>
<stop offset="1" stop-color="#E9605A"/>
</linearGradient>
<linearGradient id="paint15_linear_869_27444" x1="90.1253" y1="54.0415" x2="89.4532" y2="50.0932" gradientUnits="userSpaceOnUse">
<stop stop-color="#E1473D"/>
<stop offset="1" stop-color="#E9605A"/>
</linearGradient>
<linearGradient id="paint16_linear_869_27444" x1="89.0802" y1="47.7754" x2="91.3557" y2="59.0451" gradientUnits="userSpaceOnUse">
<stop stop-color="#E1473D"/>
<stop offset="1" stop-color="#E9605A"/>
</linearGradient>
<linearGradient id="paint17_linear_869_27444" x1="85.7649" y1="43.9417" x2="78.024" y2="64.7618" gradientUnits="userSpaceOnUse">
<stop stop-color="#FE7062"/>
<stop offset="1" stop-color="#FF928E"/>
</linearGradient>
<linearGradient id="paint18_linear_869_27444" x1="85.1765" y1="57.149" x2="84.9537" y2="72.1809" gradientUnits="userSpaceOnUse">
<stop stop-color="#FE7062"/>
<stop offset="1" stop-color="#FF928E"/>
</linearGradient>
<linearGradient id="paint19_linear_869_27444" x1="98.5136" y1="53.832" x2="92.7241" y2="58.3951" gradientUnits="userSpaceOnUse">
<stop stop-color="#E1473D"/>
<stop offset="1" stop-color="#E9605A"/>
</linearGradient>
<linearGradient id="paint20_linear_869_27444" x1="86.4669" y1="62.5093" x2="90.1423" y2="53.9366" gradientUnits="userSpaceOnUse">
<stop stop-color="#FE7062"/>
<stop offset="1" stop-color="#FF928E"/>
</linearGradient>
<linearGradient id="paint21_linear_869_27444" x1="102.821" y1="29.4007" x2="95.2495" y2="36.4127" gradientUnits="userSpaceOnUse">
<stop stop-color="#FF928E"/>
<stop offset="1" stop-color="#FEB3B1"/>
</linearGradient>
<linearGradient id="paint22_linear_869_27444" x1="3.82742" y1="106.521" x2="11.6219" y2="106.521" gradientUnits="userSpaceOnUse">
<stop stop-color="#09005D"/>
<stop offset="1" stop-color="#1A0F91"/>
</linearGradient>
<linearGradient id="paint23_linear_869_27444" x1="10.0005" y1="95.3629" x2="13.2307" y2="74.8755" gradientUnits="userSpaceOnUse">
<stop stop-color="#4042E2"/>
<stop offset="1" stop-color="#4F52FF"/>
</linearGradient>
<linearGradient id="paint24_linear_869_27444" x1="5.99509" y1="97.6437" x2="4.5051" y2="110.642" gradientUnits="userSpaceOnUse">
<stop stop-color="#A22B25"/>
<stop offset="1" stop-color="#C0423C"/>
</linearGradient>
<linearGradient id="paint25_linear_869_27444" x1="23.1769" y1="97.4406" x2="26.407" y2="76.9532" gradientUnits="userSpaceOnUse">
<stop stop-color="#4042E2"/>
<stop offset="1" stop-color="#4F52FF"/>
</linearGradient>
<linearGradient id="paint26_linear_869_27444" x1="15.6959" y1="106.719" x2="26.9159" y2="106.719" gradientUnits="userSpaceOnUse">
<stop stop-color="#09005D"/>
<stop offset="1" stop-color="#1A0F91"/>
</linearGradient>
<linearGradient id="paint27_linear_869_27444" x1="17.9191" y1="99.0166" x2="17.25" y2="112.083" gradientUnits="userSpaceOnUse">
<stop stop-color="#A22B25"/>
<stop offset="1" stop-color="#C0423C"/>
</linearGradient>
<linearGradient id="paint28_linear_869_27444" x1="26.4341" y1="108.149" x2="-45.7397" y2="-17.7735" gradientUnits="userSpaceOnUse">
<stop stop-color="#09005D"/>
<stop offset="1" stop-color="#1A0F91"/>
</linearGradient>
<linearGradient id="paint29_linear_869_27444" x1="11.9365" y1="21.8811" x2="15.3967" y2="12.4356" gradientUnits="userSpaceOnUse">
<stop stop-color="#A22B25"/>
<stop offset="1" stop-color="#C0423C"/>
</linearGradient>
<linearGradient id="paint30_linear_869_27444" x1="18.7626" y1="14.5858" x2="11.6344" y2="-3.45062" gradientUnits="userSpaceOnUse">
<stop stop-color="#A22B25"/>
<stop offset="1" stop-color="#C0423C"/>
</linearGradient>
<linearGradient id="paint31_linear_869_27444" x1="8.92543" y1="-1.48556" x2="17.4787" y2="8.5285" gradientUnits="userSpaceOnUse">
<stop stop-color="#09005D"/>
<stop offset="1" stop-color="#1A0F91"/>
</linearGradient>
<linearGradient id="paint32_linear_869_27444" x1="15.5062" y1="15.8723" x2="8.37801" y2="-2.16412" gradientUnits="userSpaceOnUse">
<stop stop-color="#A22B25"/>
<stop offset="1" stop-color="#C0423C"/>
</linearGradient>
<linearGradient id="paint33_linear_869_27444" x1="43.9006" y1="20.227" x2="22.1448" y2="31.0453" gradientUnits="userSpaceOnUse">
<stop stop-color="#A22B25"/>
<stop offset="1" stop-color="#C0423C"/>
</linearGradient>
<linearGradient id="paint34_linear_869_27444" x1="43.582" y1="17.5121" x2="36.1385" y2="25.2835" gradientUnits="userSpaceOnUse">
<stop stop-color="#A22B25"/>
<stop offset="1" stop-color="#C0423C"/>
</linearGradient>
<linearGradient id="paint35_linear_869_27444" x1="44.0034" y1="20.0987" x2="22.2476" y2="30.9169" gradientUnits="userSpaceOnUse">
<stop stop-color="#A22B25"/>
<stop offset="1" stop-color="#C0423C"/>
</linearGradient>
<linearGradient id="paint36_linear_869_27444" x1="53.09" y1="38.4654" x2="-10.0394" y2="27.0541" gradientUnits="userSpaceOnUse">
<stop stop-color="#A22B25"/>
<stop offset="1" stop-color="#C0423C"/>
</linearGradient>
<clipPath id="clip0_869_27444">
<rect width="106" height="109.586" fill="white" transform="translate(0.5 0.111206)"/>
</clipPath>
</defs>
</svg>
